<svg width="1000" height="4020" xmlns="http://www.w3.org/2000/svg" version="1.1"><g transform="translate(0,10)"><g><path class="link" d="M5,2809.88988988989C251.25,2809.88988988989 251.25,2749.88988988989 497.5,2749.88988988989" style="stroke-width: 2280.22; fill: none; stroke: rgb(191, 123, 105); stroke-opacity: 0.4;"><title>614</title></path><path class="link" d="M5,906.166166166166C251.25,906.166166166166 251.25,926.1661661661661 497.5,926.1661661661661" style="stroke-width: 943.283; fill: none; stroke: rgb(191, 105, 105); stroke-opacity: 0.4;"><title>254</title></path><path class="link" d="M502.5,3500.06006006006C748.75,3500.06006006006 748.75,3540.35035035035 995,3540.35035035035" style="stroke-width: 297.097; fill: none; stroke: rgb(148, 105, 191); stroke-opacity: 0.4;"><title>80</title></path><path class="link" d="M502.5,2222.542542542543C748.75,2222.542542542543 748.75,1725.755755755756 995,1725.755755755756" style="stroke-width: 252.533; fill: none; stroke: rgb(148, 105, 191); stroke-opacity: 0.4;"><title>68</title></path><path class="link" d="M502.5,2569.774774774775C748.75,2569.774774774775 748.75,2252.677677677678 995,2252.677677677678" style="stroke-width: 248.819; fill: none; stroke: rgb(148, 105, 191); stroke-opacity: 0.4;"><title>67</title></path><path class="link" d="M502.5,3180.680680680681C748.75,3180.680680680681 748.75,3134.1241241241232 995,3134.1241241241232" style="stroke-width: 207.968; fill: none; stroke: rgb(148, 105, 191); stroke-opacity: 0.4;"><title>56</title></path><path class="link" d="M502.5,3737.737737737738C748.75,3737.737737737738 748.75,3817.7377377377375 995,3817.7377377377375" style="stroke-width: 178.258; fill: none; stroke: rgb(148, 105, 191); stroke-opacity: 0.4;"><title>48</title></path><path class="link" d="M502.5,1046.8618618618618C748.75,1046.8618618618618 748.75,1515.9309309309313 995,1515.9309309309313" style="stroke-width: 159.69; fill: none; stroke: rgb(130, 105, 191); stroke-opacity: 0.4;"><title>43</title></path><path class="link" d="M502.5,2965.285285285285C748.75,2965.285285285285 748.75,2817.0270270270266 995,2817.0270270270266" style="stroke-width: 148.549; fill: none; stroke: rgb(148, 105, 191); stroke-opacity: 0.4;"><title>40</title></path><path class="link" d="M5,210.6956956956955C251.25,210.6956956956955 251.25,226.981981981982 497.5,226.981981981982" style="stroke-width: 129.98; fill: none; stroke: rgb(185, 191, 105); stroke-opacity: 0.4;"><title>35</title></path><path class="link" d="M502.5,1854.884884884885C748.75,1854.884884884885 748.75,1015.855855855856 995,1015.855855855856" style="stroke-width: 126.266; fill: none; stroke: rgb(148, 105, 191); stroke-opacity: 0.4;"><title>34</title></path><path class="link" d="M502.5,827.7527527527526C748.75,827.7527527527526 748.75,887.7327327327329 995,887.7327327327329" style="stroke-width: 100.27; fill: none; stroke: rgb(130, 105, 191); stroke-opacity: 0.4;"><title>27</title></path><path class="link" d="M502.5,1620.9209209209212C748.75,1620.9209209209212 748.75,445.93593593593613 995,445.93593593593613" style="stroke-width: 96.5566; fill: none; stroke: rgb(148, 105, 191); stroke-opacity: 0.4;"><title>26</title></path><path class="link" d="M502.5,2397.087087087087C748.75,2397.087087087087 748.75,1947.4374374374377 995,1947.4374374374377" style="stroke-width: 96.5566; fill: none; stroke: rgb(148, 105, 191); stroke-opacity: 0.4;"><title>26</title></path><path class="link" d="M502.5,2796.311311311311C748.75,2796.311311311311 748.75,2564.9199199199193 995,2564.9199199199193" style="stroke-width: 92.8428; fill: none; stroke: rgb(148, 105, 191); stroke-opacity: 0.4;"><title>25</title></path><path class="link" d="M502.5,588.2182182182182C748.75,588.2182182182182 748.75,353.09309309309333 995,353.09309309309333" style="stroke-width: 89.1291; fill: none; stroke: rgb(130, 105, 191); stroke-opacity: 0.4;"><title>24</title></path><path class="link" d="M502.5,3318.0880880880886C748.75,3318.0880880880886 748.75,3288.9589589589586 995,3288.9589589589586" style="stroke-width: 66.8468; fill: none; stroke: rgb(148, 105, 191); stroke-opacity: 0.4;"><title>18</title></path><path class="link" d="M5,1638.2132132132133C251.25,1638.2132132132133 251.25,1482.7977977977978 497.5,1482.7977977977978" style="stroke-width: 63.1331; fill: none; stroke: rgb(191, 123, 105); stroke-opacity: 0.4;"><title>17</title></path><path class="link" d="M502.5,1317.9629629629628C748.75,1317.9629629629628 748.75,2987.4324324324316 995,2987.4324324324316" style="stroke-width: 55.7057; fill: none; stroke: rgb(130, 105, 191); stroke-opacity: 0.4;"><title>15</title></path><path class="link" d="M502.5,2005.2902902902904C748.75,2005.2902902902904 748.75,1266.8218218218221 995,1266.8218218218221" style="stroke-width: 55.7057; fill: none; stroke: rgb(148, 105, 191); stroke-opacity: 0.4;"><title>15</title></path><path class="link" d="M502.5,293.8288288288288C748.75,293.8288288288288 748.75,2033.5685685685687 995,2033.5685685685687" style="stroke-width: 55.7057; fill: none; stroke: rgb(185, 105, 191); stroke-opacity: 0.4;"><title>15</title></path><path class="link" d="M502.5,178.70370370370372C748.75,178.70370370370372 748.75,243.53853853853875 995,243.53853853853875" style="stroke-width: 55.7057; fill: none; stroke: rgb(185, 105, 191); stroke-opacity: 0.4;"><title>15</title></path><path class="link" d="M502.5,2057.2822822822823C748.75,2057.2822822822823 748.75,1354.80980980981 995,1354.80980980981" style="stroke-width: 48.2783; fill: none; stroke: rgb(148, 105, 191); stroke-opacity: 0.4;"><title>13</title></path><path class="link" d="M502.5,2866.871871871872C748.75,2866.871871871872 748.75,2656.621621621621 995,2656.621621621621" style="stroke-width: 48.2783; fill: none; stroke: rgb(148, 105, 191); stroke-opacity: 0.4;"><title>13</title></path><path class="link" d="M502.5,1176.8418418418416C748.75,1176.8418418418416 748.75,2089.274274274274 995,2089.274274274274" style="stroke-width: 48.2783; fill: none; stroke: rgb(130, 105, 191); stroke-opacity: 0.4;"><title>13</title></path><path class="link" d="M502.5,755.3353353353352C748.75,755.3353353353352 748.75,734.7547547547549 995,734.7547547547549" style="stroke-width: 44.5646; fill: none; stroke: rgb(130, 105, 191); stroke-opacity: 0.4;"><title>12</title></path><path class="link" d="M502.5,1769.4694694694695C748.75,1769.4694694694695 748.75,779.3193193193194 995,779.3193193193194" style="stroke-width: 44.5646; fill: none; stroke: rgb(148, 105, 191); stroke-opacity: 0.4;"><title>12</title></path><path class="link" d="M502.5,2727.6076076076074C748.75,2727.6076076076074 748.75,2449.079079079079 995,2449.079079079079" style="stroke-width: 44.5646; fill: none; stroke: rgb(148, 105, 191); stroke-opacity: 0.4;"><title>12</title></path><path class="link" d="M502.5,1375.5255255255254C748.75,1375.5255255255254 748.75,3362.0920920920917 995,3362.0920920920917" style="stroke-width: 44.5646; fill: none; stroke: rgb(130, 105, 191); stroke-opacity: 0.4;"><title>12</title></path><path class="link" d="M502.5,655.065065065065C748.75,655.065065065065 748.75,526.4964964964967 995,526.4964964964967" style="stroke-width: 44.5646; fill: none; stroke: rgb(130, 105, 191); stroke-opacity: 0.4;"><title>12</title></path><path class="link" d="M502.5,506.5165165165165C748.75,506.5165165165165 748.75,128.83883883883908 995,128.83883883883908" style="stroke-width: 44.5646; fill: none; stroke: rgb(130, 105, 191); stroke-opacity: 0.4;"><title>12</title></path><path class="link" d="M5,414.0990990990989C251.25,414.0990990990989 251.25,370.67567567567573 497.5,370.67567567567573" style="stroke-width: 40.8509; fill: none; stroke: rgb(191, 105, 105); stroke-opacity: 0.4;"><title>11</title></path><path class="link" d="M502.5,365.10510510510517C748.75,365.10510510510517 748.75,289.9599599599602 995,289.9599599599602" style="stroke-width: 37.1371; fill: none; stroke: rgb(191, 105, 160); stroke-opacity: 0.4;"><title>10</title></path><path class="link" d="M502.5,465.6656656656657C748.75,465.6656656656657 748.75,37.137137137137366 995,37.137137137137366" style="stroke-width: 37.1371; fill: none; stroke: rgb(130, 105, 191); stroke-opacity: 0.4;"><title>10</title></path><path class="link" d="M502.5,1958.868868868869C748.75,1958.868868868869 748.75,1173.2632632632633 995,1173.2632632632633" style="stroke-width: 37.1371; fill: none; stroke: rgb(148, 105, 191); stroke-opacity: 0.4;"><title>10</title></path><path class="link" d="M502.5,3058.128128128128C748.75,3058.128128128128 748.75,2927.2972972972966 995,2927.2972972972966" style="stroke-width: 37.1371; fill: none; stroke: rgb(148, 105, 191); stroke-opacity: 0.4;"><title>10</title></path><path class="link" d="M5,1523.9389389389391C251.25,1523.9389389389391 251.25,1593.0680680680684 497.5,1593.0680680680684" style="stroke-width: 33.4234; fill: none; stroke: rgb(111, 191, 105); stroke-opacity: 0.4;"><title>9</title></path><path class="link" d="M502.5,1265.970970970971C748.75,1265.970970970971 748.75,2714.8998998998995 995,2714.8998998998995" style="stroke-width: 33.4234; fill: none; stroke: rgb(130, 105, 191); stroke-opacity: 0.4;"><title>9</title></path><path class="link" d="M502.5,916.8818818818819C748.75,916.8818818818819 748.75,1222.2572572572576 995,1222.2572572572576" style="stroke-width: 33.4234; fill: none; stroke: rgb(130, 105, 191); stroke-opacity: 0.4;"><title>9</title></path><path class="link" d="M5,302.3973973973972C251.25,302.3973973973972 251.25,308.6836836836837 497.5,308.6836836836837" style="stroke-width: 33.4234; fill: none; stroke: rgb(191, 160, 105); stroke-opacity: 0.4;"><title>9</title></path><path class="link" d="M502.5,1684.0540540540542C748.75,1684.0540540540542 748.75,563.6336336336337 995,563.6336336336337" style="stroke-width: 29.7097; fill: none; stroke: rgb(148, 105, 191); stroke-opacity: 0.4;"><title>8</title></path><path class="link" d="M502.5,3875.145145145145C748.75,3875.145145145145 748.75,3985.1451451451444 995,3985.1451451451444" style="stroke-width: 29.7097; fill: none; stroke: rgb(148, 105, 191); stroke-opacity: 0.4;"><title>8</title></path><path class="link" d="M502.5,718.1981981981982C748.75,718.1981981981982 748.75,657.907907907908 995,657.907907907908" style="stroke-width: 29.7097; fill: none; stroke: rgb(130, 105, 191); stroke-opacity: 0.4;"><title>8</title></path><path class="link" d="M502.5,1732.3323323323325C748.75,1732.3323323323325 748.75,687.6176176176177 995,687.6176176176177" style="stroke-width: 29.7097; fill: none; stroke: rgb(148, 105, 191); stroke-opacity: 0.4;"><title>8</title></path><path class="link" d="M5,1454.9449449449448C251.25,1454.9449449449448 251.25,1554.0740740740744 497.5,1554.0740740740744" style="stroke-width: 29.7097; fill: none; stroke: rgb(130, 191, 105); stroke-opacity: 0.4;"><title>8</title></path><path class="link" d="M502.5,219.55455455455456C748.75,219.55455455455456 748.75,824.5995995995997 995,824.5995995995997" style="stroke-width: 25.996; fill: none; stroke: rgb(185, 105, 191); stroke-opacity: 0.4;"><title>7</title></path><path class="link" d="M502.5,1139.7047047047047C748.75,1139.7047047047047 748.75,1886.1611611611613 995,1886.1611611611613" style="stroke-width: 25.996; fill: none; stroke: rgb(130, 105, 191); stroke-opacity: 0.4;"><title>7</title></path><path class="link" d="M502.5,690.3453453453453C748.75,690.3453453453453 748.75,601.4864864864867 995,601.4864864864867" style="stroke-width: 25.996; fill: none; stroke: rgb(130, 105, 191); stroke-opacity: 0.4;"><title>7</title></path><path class="link" d="M5,122.70770770770748C251.25,122.70770770770748 251.25,148.993993993994 497.5,148.993993993994" style="stroke-width: 25.996; fill: none; stroke: rgb(105, 172, 191); stroke-opacity: 0.4;"><title>7</title></path><path class="link" d="M502.5,946.5915915915916C748.75,946.5915915915916 748.75,1317.672672672673 995,1317.672672672673" style="stroke-width: 25.996; fill: none; stroke: rgb(130, 105, 191); stroke-opacity: 0.4;"><title>7</title></path><path class="link" d="M5,88.56856856856834C251.25,88.56856856856834 251.25,124.85485485485486 497.5,124.85485485485486" style="stroke-width: 22.2823; fill: none; stroke: rgb(105, 191, 117); stroke-opacity: 0.4;"><title>6</title></path><path class="link" d="M502.5,139.7097097097097C748.75,139.7097097097097 748.75,95.41541541541565 995,95.41541541541565" style="stroke-width: 22.2823; fill: none; stroke: rgb(185, 105, 191); stroke-opacity: 0.4;"><title>6</title></path><path class="link" d="M502.5,1929.1591591591593C748.75,1929.1591591591593 748.75,1111.2712712712714 995,1111.2712712712714" style="stroke-width: 22.2823; fill: none; stroke: rgb(148, 105, 191); stroke-opacity: 0.4;"><title>6</title></path><path class="link" d="M502.5,1554.0740740740741C748.75,1554.0740740740741 748.75,162.26226226226248 995,162.26226226226248" style="stroke-width: 22.2823; fill: none; stroke: rgb(148, 105, 191); stroke-opacity: 0.4;"><title>6</title></path><path class="link" d="M502.5,1422.6626626626628C748.75,1422.6626626626628 748.75,3713.7537537537537 995,3713.7537537537537" style="stroke-width: 22.2823; fill: none; stroke: rgb(191, 105, 123); stroke-opacity: 0.4;"><title>6</title></path><path class="link" d="M502.5,1533.6486486486488C748.75,1533.6486486486488 748.75,64.98998998999022 995,64.98998998999022" style="stroke-width: 18.5686; fill: none; stroke: rgb(148, 105, 191); stroke-opacity: 0.4;"><title>5</title></path><path class="link" d="M502.5,1228.8338338338335C748.75,1228.8338338338335 748.75,2505.5005005005 995,2505.5005005005" style="stroke-width: 18.5686; fill: none; stroke: rgb(130, 105, 191); stroke-opacity: 0.4;"><title>5</title></path><path class="link" d="M502.5,3851.006006006006C748.75,3851.006006006006 748.75,3951.0060060060055 995,3951.0060060060055" style="stroke-width: 18.5686; fill: none; stroke: rgb(148, 105, 191); stroke-opacity: 0.4;"><title>5</title></path><path class="link" d="M502.5,890.8858858858857C748.75,890.8858858858857 748.75,1145.4104104104106 995,1145.4104104104106" style="stroke-width: 18.5686; fill: none; stroke: rgb(130, 105, 191); stroke-opacity: 0.4;"><title>5</title></path><path class="link" d="M502.5,1708.1931931931933C748.75,1708.1931931931933 748.75,623.768768768769 995,623.768768768769" style="stroke-width: 18.5686; fill: none; stroke: rgb(148, 105, 191); stroke-opacity: 0.4;"><title>5</title></path><path class="link" d="M502.5,119.28428428428428C748.75,119.28428428428428 748.75,9.284284284284512 995,9.284284284284512" style="stroke-width: 18.5686; fill: none; stroke: rgb(185, 105, 191); stroke-opacity: 0.4;"><title>5</title></path><path class="link" d="M502.5,1212.122122122122C748.75,1212.122122122122 748.75,2419.3693693693695 995,2419.3693693693695" style="stroke-width: 14.8549; fill: none; stroke: rgb(130, 105, 191); stroke-opacity: 0.4;"><title>4</title></path><path class="link" d="M5,376.246246246246C251.25,376.246246246246 251.25,1531.7917917917919 497.5,1531.7917917917919" style="stroke-width: 14.8549; fill: none; stroke: rgb(148, 191, 105); stroke-opacity: 0.4;"><title>4</title></path><path class="link" d="M502.5,3834.2942942942946C748.75,3834.2942942942946 748.75,3924.294294294294 995,3924.294294294294" style="stroke-width: 14.8549; fill: none; stroke: rgb(148, 105, 191); stroke-opacity: 0.4;"><title>4</title></path><path class="link" d="M502.5,2088.8488488488492C748.75,2088.8488488488492 748.75,1403.803803803804 995,1403.803803803804" style="stroke-width: 14.8549; fill: none; stroke: rgb(148, 105, 191); stroke-opacity: 0.4;"><title>4</title></path><path class="link" d="M502.5,536.2262262262262C748.75,536.2262262262262 748.75,190.83083083083105 995,190.83083083083105" style="stroke-width: 14.8549; fill: none; stroke: rgb(130, 105, 191); stroke-opacity: 0.4;"><title>4</title></path><path class="link" d="M5,1589.2192192192192C251.25,1589.2192192192192 251.25,1426.3763763763764 497.5,1426.3763763763764" style="stroke-width: 14.8549; fill: none; stroke: rgb(111, 105, 191); stroke-opacity: 0.4;"><title>4</title></path><path class="link" d="M502.5,1451.2312312312313C748.75,1451.2312312312313 748.75,945.2952952952954 995,945.2952952952954" style="stroke-width: 14.8549; fill: none; stroke: rgb(166, 105, 191); stroke-opacity: 0.4;"><title>4</title></path><path class="link" d="M502.5,1495.7957957957958C748.75,1495.7957957957958 748.75,3022.712712712712 995,3022.712712712712" style="stroke-width: 14.8549; fill: none; stroke: rgb(166, 105, 191); stroke-opacity: 0.4;"><title>4</title></path><path class="link" d="M502.5,2699.7547547547547C748.75,2699.7547547547547 748.75,2396.3713713713714 995,2396.3713713713714" style="stroke-width: 11.1411; fill: none; stroke: rgb(148, 105, 191); stroke-opacity: 0.4;"><title>3</title></path><path class="link" d="M502.5,1243.6886886886887C748.75,1243.6886886886887 748.75,2626.9119119119114 995,2626.9119119119114" style="stroke-width: 11.1411; fill: none; stroke: rgb(130, 105, 191); stroke-opacity: 0.4;"><title>3</title></path><path class="link" d="M502.5,260.4054054054054C748.75,260.4054054054054 748.75,1867.5925925925928 995,1867.5925925925928" style="stroke-width: 11.1411; fill: none; stroke: rgb(185, 105, 191); stroke-opacity: 0.4;"><title>3</title></path><path class="link" d="M502.5,249.26426426426426C748.75,249.26426426426426 748.75,1426.8018018018022 995,1426.8018018018022" style="stroke-width: 11.1411; fill: none; stroke: rgb(185, 105, 191); stroke-opacity: 0.4;"><title>3</title></path><path class="link" d="M5,359.5345345345343C251.25,359.5345345345343 251.25,330.965965965966 497.5,330.965965965966" style="stroke-width: 11.1411; fill: none; stroke: rgb(148, 191, 105); stroke-opacity: 0.4;"><title>3</title></path><path class="link" d="M502.5,1482.797797797798C748.75,1482.797797797798 748.75,2737.1821821821814 995,2737.1821821821814" style="stroke-width: 11.1411; fill: none; stroke: rgb(166, 105, 191); stroke-opacity: 0.4;"><title>3</title></path><path class="link" d="M502.5,1467.942942942943C748.75,1467.942942942943 748.75,2122.6976976976975 995,2122.6976976976975" style="stroke-width: 11.1411; fill: none; stroke: rgb(166, 105, 191); stroke-opacity: 0.4;"><title>3</title></path><path class="link" d="M502.5,1568.928928928929C748.75,1568.928928928929 748.75,201.97197197197218 995,201.97197197197218" style="stroke-width: 7.42743; fill: none; stroke: rgb(148, 105, 191); stroke-opacity: 0.4;"><title>2</title></path><path class="link" d="M502.5,433.3833833833834C748.75,433.3833833833834 748.75,3336.0960960960956 995,3336.0960960960956" style="stroke-width: 7.42743; fill: none; stroke: rgb(191, 105, 142); stroke-opacity: 0.4;"><title>2</title></path><path class="link" d="M502.5,1349.5295295295293C748.75,1349.5295295295293 748.75,3251.8218218218212 995,3251.8218218218212" style="stroke-width: 7.42743; fill: none; stroke: rgb(130, 105, 191); stroke-opacity: 0.4;"><title>2</title></path><path class="link" d="M502.5,963.3033033033031C748.75,963.3033033033031 748.75,1392.662662662663 995,1392.662662662663" style="stroke-width: 7.42743; fill: none; stroke: rgb(130, 105, 191); stroke-opacity: 0.4;"><title>2</title></path><path class="link" d="M5,1568.0780780780783C251.25,1568.0780780780783 251.25,1415.2352352352355 497.5,1415.2352352352355" style="stroke-width: 7.42743; fill: none; stroke: rgb(105, 117, 191); stroke-opacity: 0.4;"><title>2</title></path><path class="link" d="M502.5,329.10910910910906C748.75,329.10910910910906 748.75,2694.474474474474 995,2694.474474474474" style="stroke-width: 7.42743; fill: none; stroke: rgb(185, 105, 191); stroke-opacity: 0.4;"><title>2</title></path><path class="link" d="M5,1418.948948948949C251.25,1418.948948948949 251.25,433.3833833833834 497.5,433.3833833833834" style="stroke-width: 7.42743; fill: none; stroke: rgb(105, 191, 172); stroke-opacity: 0.4;"><title>2</title></path><path class="link" d="M5,1436.3763763763764C251.25,1436.3763763763764 251.25,1447.5175175175177 497.5,1447.5175175175177" style="stroke-width: 7.42743; fill: none; stroke: rgb(130, 191, 105); stroke-opacity: 0.4;"><title>2</title></path><path class="link" d="M502.5,236.26626626626626C748.75,236.26626626626626 748.75,1092.702702702703 995,1092.702702702703" style="stroke-width: 7.42743; fill: none; stroke: rgb(185, 105, 191); stroke-opacity: 0.4;"><title>2</title></path><path class="link" d="M5,322.8228228228226C251.25,322.8228228228226 251.25,422.24224224224224 497.5,422.24224224224224" style="stroke-width: 7.42743; fill: none; stroke: rgb(191, 160, 105); stroke-opacity: 0.4;"><title>2</title></path><path class="link" d="M502.5,1286.3963963963963C748.75,1286.3963963963963 748.75,2905.0150150150143 995,2905.0150150150143" style="stroke-width: 7.42743; fill: none; stroke: rgb(130, 105, 191); stroke-opacity: 0.4;"><title>2</title></path><path class="link" d="M502.5,425.955955955956C748.75,425.955955955956 748.75,2492.5025025025025 995,2492.5025025025025" style="stroke-width: 7.42743; fill: none; stroke: rgb(191, 105, 142); stroke-opacity: 0.4;"><title>2</title></path><path class="link" d="M502.5,1506.9369369369372C748.75,1506.9369369369372 748.75,3388.0880880880877 995,3388.0880880880877" style="stroke-width: 7.42743; fill: none; stroke: rgb(166, 105, 191); stroke-opacity: 0.4;"><title>2</title></path><path class="link" d="M502.5,1460.5155155155157C748.75,1460.5155155155157 748.75,1597.632632632633 995,1597.632632632633" style="stroke-width: 3.71371; fill: none; stroke: rgb(166, 105, 191); stroke-opacity: 0.4;"><title>1</title></path><path class="link" d="M502.5,1512.5075075075076C748.75,1512.5075075075076 748.75,3726.7517517517513 995,3726.7517517517513" style="stroke-width: 3.71371; fill: none; stroke: rgb(166, 105, 191); stroke-opacity: 0.4;"><title>1</title></path><path class="link" d="M5,1389.6646646646645C251.25,1389.6646646646645 251.25,406.6716716716717 497.5,406.6716716716717" style="stroke-width: 3.71371; fill: none; stroke: rgb(105, 191, 191); stroke-opacity: 0.4;"><title>1</title></path><path class="link" d="M502.5,323.5385385385385C748.75,323.5385385385385 748.75,2483.2182182182178 995,2483.2182182182178" style="stroke-width: 3.71371; fill: none; stroke: rgb(185, 105, 191); stroke-opacity: 0.4;"><title>1</title></path><path class="link" d="M502.5,1475.3703703703704C748.75,1475.3703703703704 748.75,2516.6416416416414 995,2516.6416416416414" style="stroke-width: 3.71371; fill: none; stroke: rgb(166, 105, 191); stroke-opacity: 0.4;"><title>1</title></path><path class="link" d="M5,1552.5075075075076C251.25,1552.5075075075076 251.25,1409.6646646646648 497.5,1409.6646646646648" style="stroke-width: 3.71371; fill: none; stroke: rgb(105, 154, 191); stroke-opacity: 0.4;"><title>1</title></path><path class="link" d="M5,1481.6566566566567C251.25,1481.6566566566567 251.25,1570.785785785786 497.5,1570.785785785786" style="stroke-width: 3.71371; fill: none; stroke: rgb(105, 191, 154); stroke-opacity: 0.4;"><title>1</title></path><path class="link" d="M5,51.85685685685663C251.25,51.85685685685663 251.25,348.3933933933934 497.5,348.3933933933934" style="stroke-width: 3.71371; fill: none; stroke: rgb(105, 191, 136); stroke-opacity: 0.4;"><title>1</title></path><path class="link" d="M5,1403.3783783783783C251.25,1403.3783783783783 251.25,427.81281281281275 497.5,427.81281281281275" style="stroke-width: 3.71371; fill: none; stroke: rgb(105, 136, 191); stroke-opacity: 0.4;"><title>1</title></path><path class="link" d="M5,1495.3703703703704C251.25,1495.3703703703704 251.25,1574.4994994994997 497.5,1574.4994994994997" style="stroke-width: 3.71371; fill: none; stroke: rgb(166, 191, 105); stroke-opacity: 0.4;"><title>1</title></path><path class="link" d="M5,342.10710710710686C251.25,342.10710710710686 251.25,452.6676676676677 497.5,452.6676676676677" style="stroke-width: 3.71371; fill: none; stroke: rgb(191, 142, 105); stroke-opacity: 0.4;"><title>1</title></path><path class="link" d="M5,366.9619619619617C251.25,366.9619619619617 251.25,402.95795795795794 497.5,402.95795795795794" style="stroke-width: 3.71371; fill: none; stroke: rgb(148, 191, 105); stroke-opacity: 0.4;"><title>1</title></path><path class="link" d="M502.5,241.83683683683685C748.75,241.83683683683685 748.75,1134.2692692692694 995,1134.2692692692694" style="stroke-width: 3.71371; fill: none; stroke: rgb(185, 105, 191); stroke-opacity: 0.4;"><title>1</title></path><path class="link" d="M502.5,334.6796796796796C748.75,334.6796796796796 748.75,3700.755755755755 995,3700.755755755755" style="stroke-width: 3.71371; fill: none; stroke: rgb(185, 105, 191); stroke-opacity: 0.4;"><title>1</title></path><path class="link" d="M502.5,406.6716716716717C748.75,406.6716716716717 748.75,2957.7227227227218 995,2957.7227227227218" style="stroke-width: 3.71371; fill: none; stroke: rgb(191, 105, 179); stroke-opacity: 0.4;"><title>1</title></path><path class="link" d="M502.5,402.95795795795794C748.75,402.95795795795794 748.75,1434.2292292292295 995,1434.2292292292295" style="stroke-width: 3.71371; fill: none; stroke: rgb(191, 105, 179); stroke-opacity: 0.4;"><title>1</title></path><path class="link" d="M502.5,385.53053053053054C748.75,385.53053053053054 748.75,1203.688688688689 995,1203.688688688689" style="stroke-width: 3.71371; fill: none; stroke: rgb(191, 105, 160); stroke-opacity: 0.4;"><title>1</title></path><path class="link" d="M5,328.3933933933932C251.25,328.3933933933932 251.25,448.95395395395394 497.5,448.95395395395394" style="stroke-width: 3.71371; fill: none; stroke: rgb(191, 160, 105); stroke-opacity: 0.4;"><title>1</title></path><path class="link" d="M502.5,389.24424424424427C748.75,389.24424424424427 748.75,2486.9319319319316 995,2486.9319319319316" style="stroke-width: 3.71371; fill: none; stroke: rgb(191, 105, 160); stroke-opacity: 0.4;"><title>1</title></path><path class="link" d="M502.5,1202.8378378378377C748.75,1202.8378378378377 748.75,2388.943943943944 995,2388.943943943944" style="stroke-width: 3.71371; fill: none; stroke: rgb(130, 105, 191); stroke-opacity: 0.4;"><title>1</title></path><path class="link" d="M5,65.57057057057034C251.25,65.57057057057034 251.25,111.85685685685685 497.5,111.85685685685685" style="stroke-width: 3.71371; fill: none; stroke: rgb(191, 179, 105); stroke-opacity: 0.4;"><title>1</title></path><path class="link" d="M502.5,420.38538538538535C748.75,420.38538538538535 748.75,2063.2782782782783 995,2063.2782782782783" style="stroke-width: 3.71371; fill: none; stroke: rgb(191, 105, 142); stroke-opacity: 0.4;"><title>1</title></path><path class="link" d="M502.5,1409.6646646646648C748.75,1409.6646646646648 748.75,2115.27027027027 995,2115.27027027027" style="stroke-width: 3.71371; fill: none; stroke: rgb(191, 105, 123); stroke-opacity: 0.4;"><title>1</title></path><path class="link" d="M502.5,879.7447447447447C748.75,879.7447447447447 748.75,1098.2732732732734 995,1098.2732732732734" style="stroke-width: 3.71371; fill: none; stroke: rgb(130, 105, 191); stroke-opacity: 0.4;"><title>1</title></path></g><g><g class="node" transform="translate(0,1401.5215215215214)"><rect height="3.7137137137137137" width="5"><title>Baker Dyce
1</title></rect><text x="11" y="1.8568568568568569" dy=".35em" text-anchor="start" style="font-size: 11px; font-family: Arial, Helvetica; pointer-events: none;">Baker Dyce</text></g><g class="node" transform="translate(0,1493.5135135135135)"><rect height="3.7137137137137137" width="5"><title>Baker Inteq
1</title></rect><text x="11" y="1.8568568568568569" dy=".35em" text-anchor="start" style="font-size: 11px; font-family: Arial, Helvetica; pointer-events: none;">Baker Inteq</text></g><g class="node" transform="translate(0,77.4274274274272)"><rect height="22.28228228228228" width="5"><title>BJ Service
6</title></rect><text x="11" y="11.14114114114114" dy=".35em" text-anchor="start" style="font-size: 11px; font-family: Arial, Helvetica; pointer-events: none;">BJ Service</text></g><g class="node" transform="translate(0,285.6856856856855)"><rect height="44.56456456456456" width="5"><title>BJ Services
12</title></rect><text x="11" y="22.28228228228228" dy=".35em" text-anchor="start" style="font-size: 11px; font-family: Arial, Helvetica; pointer-events: none;">BJ Services</text></g><g class="node" transform="translate(0,1432.6626626626626)"><rect height="37.13713713713714" width="5"><title>bp
10</title></rect><text x="11" y="18.56856856856857" dy=".35em" text-anchor="start" style="font-size: 11px; font-family: Arial, Helvetica; pointer-events: none;">bp</text></g><g class="node" transform="translate(0,1606.6466466466468)"><rect height="2343.353353353353" width="5"><title>BP
631</title></rect><text x="11" y="1171.6766766766766" dy=".35em" text-anchor="start" style="font-size: 11px; font-family: Arial, Helvetica; pointer-events: none;">BP</text></g><g class="node" transform="translate(0,109.70970970970949)"><rect height="25.995995995995997" width="5"><title>BST Dyce
7</title></rect><text x="11" y="12.997997997997999" dy=".35em" text-anchor="start" style="font-size: 11px; font-family: Arial, Helvetica; pointer-events: none;">BST Dyce</text></g><g class="node" transform="translate(0,63.71371371371349)"><rect height="3.7137137137137137" width="5"><title>Ceva
1</title></rect><text x="11" y="1.8568568568568569" dy=".35em" text-anchor="start" style="font-size: 11px; font-family: Arial, Helvetica; pointer-events: none;">Ceva</text></g><g class="node" transform="translate(0,49.99999999999977)"><rect height="3.7137137137137137" width="5"><title>Conserve
1</title></rect><text x="11" y="1.8568568568568569" dy=".35em" text-anchor="start" style="font-size: 11px; font-family: Arial, Helvetica; pointer-events: none;">Conserve</text></g><g class="node" transform="translate(0,1507.2272272272273)"><rect height="33.42342342342342" width="5"><title>DO NOT REMOVE
9</title></rect><text x="11" y="16.71171171171171" dy=".35em" text-anchor="start" style="font-size: 11px; font-family: Arial, Helvetica; pointer-events: none;">DO NOT REMOVE</text></g><g class="node" transform="translate(0,1415.2352352352352)"><rect height="7.4274274274274275" width="5"><title>Halliburton
2</title></rect><text x="11" y="3.7137137137137137" dy=".35em" text-anchor="start" style="font-size: 11px; font-family: Arial, Helvetica; pointer-events: none;">Halliburton</text></g><g class="node" transform="translate(0,1550.6506506506507)"><rect height="3.7137137137137137" width="5"><title>Hellmann
1</title></rect><text x="11" y="1.8568568568568569" dy=".35em" text-anchor="start" style="font-size: 11px; font-family: Arial, Helvetica; pointer-events: none;">Hellmann</text></g><g class="node" transform="translate(0,1387.8078078078076)"><rect height="3.7137137137137137" width="5"><title>Hughes Christenson
1</title></rect><text x="11" y="1.8568568568568569" dy=".35em" text-anchor="start" style="font-size: 11px; font-family: Arial, Helvetica; pointer-events: none;">Hughes Christenson</text></g><g class="node" transform="translate(0,1479.7997997997998)"><rect height="3.7137137137137137" width="5"><title>Panalpina
1</title></rect><text x="11" y="1.8568568568568569" dy=".35em" text-anchor="start" style="font-size: 11px; font-family: Arial, Helvetica; pointer-events: none;">Panalpina</text></g><g class="node" transform="translate(0,1564.3643643643645)"><rect height="7.4274274274274275" width="5"><title>Petersons
2</title></rect><text x="11" y="3.7137137137137137" dy=".35em" text-anchor="start" style="font-size: 11px; font-family: Arial, Helvetica; pointer-events: none;">Petersons</text></g><g class="node" transform="translate(0,1581.7917917917919)"><rect height="14.854854854854855" width="5"><title>SBS
4</title></rect><text x="11" y="7.4274274274274275" dy=".35em" text-anchor="start" style="font-size: 11px; font-family: Arial, Helvetica; pointer-events: none;">SBS</text></g><g class="node" transform="translate(0,353.96396396396375)"><rect height="29.70970970970971" width="5"><title>Schlumberger
8</title></rect><text x="11" y="14.854854854854855" dy=".35em" text-anchor="start" style="font-size: 11px; font-family: Arial, Helvetica; pointer-events: none;">Schlumberger</text></g><g class="node" transform="translate(0,340.25025025025)"><rect height="3.7137137137137137" width="5"><title>shell
1</title></rect><text x="11" y="1.8568568568568569" dy=".35em" text-anchor="start" style="font-size: 11px; font-family: Arial, Helvetica; pointer-events: none;">shell</text></g><g class="node" transform="translate(0,393.6736736736735)"><rect height="984.1341341341341" width="5"><title>Shell
265</title></rect><text x="11" y="492.06706706706706" dy=".35em" text-anchor="start" style="font-size: 11px; font-family: Arial, Helvetica; pointer-events: none;">Shell</text></g><g class="node" transform="translate(0,145.7057057057055)"><rect height="129.97997997998" width="5"><title>Team
35</title></rect><text x="11" y="64.98998998999" dy=".35em" text-anchor="start" style="font-size: 11px; font-family: Arial, Helvetica; pointer-events: none;">Team</text></g><g class="node" transform="translate(497.5,1443.803803803804)"><rect height="70.56056056056056" width="5"><title>ASCO R&amp;R Albert Quay
19</title></rect><text x="11" y="35.28028028028028" dy=".35em" text-anchor="start" style="font-size: 11px; font-family: Arial, Helvetica; pointer-events: none;">ASCO R&amp;R Albert Quay</text></g><g class="node" transform="translate(497.5,1524.3643643643645)"><rect height="2365.6356356356355" width="5"><title>ASCO, Albert Quay BP
637</title></rect><text x="11" y="1182.8178178178177" dy=".35em" text-anchor="start" style="font-size: 11px; font-family: Arial, Helvetica; pointer-events: none;">ASCO, Albert Quay BP</text></g><g class="node" transform="translate(497.5,110)"><rect height="226.53653653653654" width="5"><title>ASCO, Mearns Quay
61</title></rect><text x="11" y="113.26826826826827" dy=".35em" text-anchor="start" style="font-size: 11px; font-family: Arial, Helvetica; pointer-events: none;">ASCO, Mearns Quay</text></g><g class="node" transform="translate(497.5,401.1011011011011)"><rect height="7.4274274274274275" width="5"><title>SBS Altens Operations Base
2</title></rect><text x="11" y="3.7137137137137137" dy=".35em" text-anchor="start" style="font-size: 11px; font-family: Arial, Helvetica; pointer-events: none;">SBS Altens Operations Base</text></g><g class="node" transform="translate(497.5,447.0970970970971)"><rect height="950.7107107107107" width="5"><title>SBS Torry Dock
256</title></rect><text x="11" y="475.35535535535536" dy=".35em" text-anchor="start" style="font-size: 11px; font-family: Arial, Helvetica; pointer-events: none;">SBS Torry Dock</text></g><g class="node" transform="translate(497.5,1407.8078078078079)"><rect height="25.995995995995997" width="5"><title>SBS, Waterloo Quay
7</title></rect><text x="11" y="12.997997997997999" dy=".35em" text-anchor="start" style="font-size: 11px; font-family: Arial, Helvetica; pointer-events: none;">SBS, Waterloo Quay</text></g><g class="node" transform="translate(497.5,346.5365365365366)"><rect height="44.56456456456456" width="5"><title>Shell, Torry Dock
12</title></rect><text x="11" y="22.28228228228228" dy=".35em" text-anchor="start" style="font-size: 11px; font-family: Arial, Helvetica; pointer-events: none;">Shell, Torry Dock</text></g><g class="node" transform="translate(497.5,418.5285285285285)"><rect height="18.56856856856857" width="5"><title>Total, Albert Quay
5</title></rect><text x="11" y="9.284284284284285" dy=".35em" text-anchor="start" style="font-size: 11px; font-family: Arial, Helvetica; pointer-events: none;">Total, Albert Quay</text></g><g class="node" transform="translate(995,2955.865865865865)"><rect height="282.24224224224224" width="5" style="fill: rgb(102, 102, 102);"><title>ALBA
76</title></rect><text x="-6" y="141.12112112112112" dy=".35em" text-anchor="end" style="font-size: 11px; font-family: Arial, Helvetica; pointer-events: none;">ALBA</text></g><g class="node" transform="translate(995,1132.4124124124126)"><rect height="59.41941941941942" width="5" style="fill: rgb(102, 102, 102);"><title>BALLOCH
16</title></rect><text x="-6" y="29.70970970970971" dy=".35em" text-anchor="end" style="font-size: 11px; font-family: Arial, Helvetica; pointer-events: none;">BALLOCH</text></g><g class="node" transform="translate(995,2.2737367544323206e-13)"><rect height="74.27427427427428" width="5" style="fill: rgb(102, 102, 102);"><title>BANFF
20</title></rect><text x="-6" y="37.13713713713714" dy=".35em" text-anchor="end" style="font-size: 11px; font-family: Arial, Helvetica; pointer-events: none;">BANFF</text></g><g class="node" transform="translate(995,643.0530530530532)"><rect height="59.41941941941942" width="5" style="fill: rgb(102, 102, 102);"><title>BRENT
16</title></rect><text x="-6" y="29.70970970970971" dy=".35em" text-anchor="end" style="font-size: 11px; font-family: Arial, Helvetica; pointer-events: none;">BRENT</text></g><g class="node" transform="translate(995,3248.1081081081074)"><rect height="74.27427427427428" width="5" style="fill: rgb(102, 102, 102);"><title>CAPTAIN
20</title></rect><text x="-6" y="37.13713713713714" dy=".35em" text-anchor="end" style="font-size: 11px; font-family: Arial, Helvetica; pointer-events: none;">CAPTAIN</text></g><g class="node" transform="translate(995,811.6016016016017)"><rect height="267.3873873873874" width="5" style="fill: rgb(102, 102, 102);"><title>CLAIR
72</title></rect><text x="-6" y="133.6936936936937" dy=".35em" text-anchor="end" style="font-size: 11px; font-family: Arial, Helvetica; pointer-events: none;">CLAIR</text></g><g class="node" transform="translate(995,1304.6746746746749)"><rect height="74.27427427427428" width="5" style="fill: rgb(102, 102, 102);"><title>CURLEW
20</title></rect><text x="-6" y="37.13713713713714" dy=".35em" text-anchor="end" style="font-size: 11px; font-family: Arial, Helvetica; pointer-events: none;">CURLEW</text></g><g class="node" transform="translate(995,712.4724724724726)"><rect height="89.12912912912913" width="5" style="fill: rgb(102, 102, 102);"><title>CURLEW C
24</title></rect><text x="-6" y="44.56456456456456" dy=".35em" text-anchor="end" style="font-size: 11px; font-family: Arial, Helvetica; pointer-events: none;">CURLEW C</text></g><g class="node" transform="translate(995,1388.9489489489492)"><rect height="22.28228228228228" width="5" style="fill: rgb(102, 102, 102);"><title>CYRUS
6</title></rect><text x="-6" y="11.14114114114114" dy=".35em" text-anchor="end" style="font-size: 11px; font-family: Arial, Helvetica; pointer-events: none;">CYRUS</text></g><g class="node" transform="translate(995,1862.0220220220222)"><rect height="133.6936936936937" width="5" style="fill: rgb(102, 102, 102);"><title>EDRADOUR
36</title></rect><text x="-6" y="66.84684684684684" dy=".35em" text-anchor="end" style="font-size: 11px; font-family: Arial, Helvetica; pointer-events: none;">EDRADOUR</text></g><g class="node" transform="translate(995,1421.2312312312315)"><rect height="430.79079079079077" width="5" style="fill: rgb(102, 102, 102);"><title>ELGIN
116</title></rect><text x="-6" y="215.39539539539538" dy=".35em" text-anchor="end" style="font-size: 11px; font-family: Arial, Helvetica; pointer-events: none;">ELGIN</text></g><g class="node" transform="translate(995,2411.941941941942)"><rect height="59.41941941941942" width="5" style="fill: rgb(102, 102, 102);"><title>ENOCHDHU
16</title></rect><text x="-6" y="29.70970970970971" dy=".35em" text-anchor="end" style="font-size: 11px; font-family: Arial, Helvetica; pointer-events: none;">ENOCHDHU</text></g><g class="node" transform="translate(995,3970.2902902902897)"><rect height="29.70970970970971" width="5" style="fill: rgb(102, 102, 102);"><title>ERSKINE
8</title></rect><text x="-6" y="14.854854854854855" dy=".35em" text-anchor="end" style="font-size: 11px; font-family: Arial, Helvetica; pointer-events: none;">ERSKINE</text></g><g class="node" transform="translate(995,183.40340340340362)"><rect height="22.28228228228228" width="5" style="fill: rgb(102, 102, 102);"><title>FARRAGON
6</title></rect><text x="-6" y="11.14114114114114" dy=".35em" text-anchor="end" style="font-size: 11px; font-family: Arial, Helvetica; pointer-events: none;">FARRAGON</text></g><g class="node" transform="translate(995,3332.382382382382)"><rect height="356.5165165165165" width="5" style="fill: rgb(102, 102, 102);"><title>FRANKLIN
96</title></rect><text x="-6" y="178.25825825825825" dy=".35em" text-anchor="end" style="font-size: 11px; font-family: Arial, Helvetica; pointer-events: none;">FRANKLIN</text></g><g class="node" transform="translate(995,2005.7157157157158)"><rect height="371.37137137137137" width="5" style="fill: rgb(102, 102, 102);"><title>GLENELG
100</title></rect><text x="-6" y="185.68568568568568" dy=".35em" text-anchor="end" style="font-size: 11px; font-family: Arial, Helvetica; pointer-events: none;">GLENELG</text></g><g class="node" transform="translate(995,2621.341341341341)"><rect height="59.41941941941942" width="5" style="fill: rgb(102, 102, 102);"><title>GRYPHON
16</title></rect><text x="-6" y="29.70970970970971" dy=".35em" text-anchor="end" style="font-size: 11px; font-family: Arial, Helvetica; pointer-events: none;">GRYPHON</text></g><g class="node" transform="translate(995,2387.087087087087)"><rect height="14.854854854854855" width="5" style="fill: rgb(102, 102, 102);"><title>HERON
4</title></rect><text x="-6" y="7.4274274274274275" dy=".35em" text-anchor="end" style="font-size: 11px; font-family: Arial, Helvetica; pointer-events: none;">HERON</text></g><g class="node" transform="translate(995,3916.8668668668665)"><rect height="14.854854854854855" width="5" style="fill: rgb(102, 102, 102);"><title>JADE
4</title></rect><text x="-6" y="7.4274274274274275" dy=".35em" text-anchor="end" style="font-size: 11px; font-family: Arial, Helvetica; pointer-events: none;">JADE</text></g><g class="node" transform="translate(995,504.2142142142144)"><rect height="74.27427427427428" width="5" style="fill: rgb(102, 102, 102);"><title>JOANNE
20</title></rect><text x="-6" y="37.13713713713714" dy=".35em" text-anchor="end" style="font-size: 11px; font-family: Arial, Helvetica; pointer-events: none;">JOANNE</text></g><g class="node" transform="translate(995,588.4884884884887)"><rect height="44.56456456456456" width="5" style="fill: rgb(102, 102, 102);"><title>JUDY
12</title></rect><text x="-6" y="22.28228228228228" dy=".35em" text-anchor="end" style="font-size: 11px; font-family: Arial, Helvetica; pointer-events: none;">JUDY</text></g><g class="node" transform="translate(995,1088.9889889889891)"><rect height="33.42342342342342" width="5" style="fill: rgb(102, 102, 102);"><title>MACHAR
9</title></rect><text x="-6" y="16.71171171171171" dy=".35em" text-anchor="end" style="font-size: 11px; font-family: Arial, Helvetica; pointer-events: none;">MACHAR</text></g><g class="node" transform="translate(995,3698.8988988988986)"><rect height="207.96796796796798" width="5" style="fill: rgb(102, 102, 102);"><title>MACLURE
56</title></rect><text x="-6" y="103.98398398398399" dy=".35em" text-anchor="end" style="font-size: 11px; font-family: Arial, Helvetica; pointer-events: none;">MACLURE</text></g><g class="node" transform="translate(995,215.68568568568588)"><rect height="278.5285285285285" width="5" style="fill: rgb(102, 102, 102);"><title>MARNOCK-SKUA (cond)
75</title></rect><text x="-6" y="139.26426426426426" dy=".35em" text-anchor="end" style="font-size: 11px; font-family: Arial, Helvetica; pointer-events: none;">MARNOCK-SKUA (cond)</text></g><g class="node" transform="translate(995,3941.721721721721)"><rect height="18.56856856856857" width="5" style="fill: rgb(102, 102, 102);"><title>MILLER
5</title></rect><text x="-6" y="9.284284284284285" dy=".35em" text-anchor="end" style="font-size: 11px; font-family: Arial, Helvetica; pointer-events: none;">MILLER</text></g><g class="node" transform="translate(995,2481.361361361361)"><rect height="129.97997997998" width="5" style="fill: rgb(102, 102, 102);"><title>MONAN
35</title></rect><text x="-6" y="64.98998998999" dy=".35em" text-anchor="end" style="font-size: 11px; font-family: Arial, Helvetica; pointer-events: none;">MONAN</text></g><g class="node" transform="translate(995,1201.831831831832)"><rect height="92.84284284284284" width="5" style="fill: rgb(102, 102, 102);"><title>MUNGO
25</title></rect><text x="-6" y="46.42142142142142" dy=".35em" text-anchor="end" style="font-size: 11px; font-family: Arial, Helvetica; pointer-events: none;">MUNGO</text></g><g class="node" transform="translate(995,84.2742742742745)"><rect height="89.12912912912913" width="5" style="fill: rgb(102, 102, 102);"><title>MURCHISON
24</title></rect><text x="-6" y="44.56456456456456" dy=".35em" text-anchor="end" style="font-size: 11px; font-family: Arial, Helvetica; pointer-events: none;">MURCHISON</text></g><g class="node" transform="translate(995,2690.76076076076)"><rect height="200.54054054054055" width="5" style="fill: rgb(102, 102, 102);"><title>SCHIEHALLION
54</title></rect><text x="-6" y="100.27027027027027" dy=".35em" text-anchor="end" style="font-size: 11px; font-family: Arial, Helvetica; pointer-events: none;">SCHIEHALLION</text></g><g class="node" transform="translate(995,2901.3013013013006)"><rect height="44.56456456456456" width="5" style="fill: rgb(102, 102, 102);"><title>SCOTER (oil)
12</title></rect><text x="-6" y="22.28228228228228" dy=".35em" text-anchor="end" style="font-size: 11px; font-family: Arial, Helvetica; pointer-events: none;">SCOTER (oil)</text></g></g></g></svg>