<svg width="847" height="520" xmlns="http://www.w3.org/2000/svg" version="1.1"><g transform="translate(0,10)"><g><path class="link" d="M5,65.43909348441926C213,65.43909348441926 213,65.43909348441926 421,65.43909348441926" style="stroke-width: 130.878; fill: none; stroke: rgb(191, 191, 105); stroke-opacity: 0.4;"><title>1232</title></path><path class="link" d="M426,298.3817280453258C634,298.3817280453258 634,136.36331444759207 842,136.36331444759207" style="stroke-width: 79.3555; fill: none; stroke: rgb(148, 105, 191); stroke-opacity: 0.4;"><title>747</title></path><path class="link" d="M426,385.61260623229464C634,385.61260623229464 634,309.550283286119 842,309.550283286119" style="stroke-width: 75.1062; fill: none; stroke: rgb(105, 191, 191); stroke-opacity: 0.4;"><title>707</title></path><path class="link" d="M5,291.1437677053824C213,291.1437677053824 213,200.31515580736541 421,200.31515580736541" style="stroke-width: 66.3952; fill: none; stroke: rgb(105, 191, 105); stroke-opacity: 0.4;"><title>625</title></path><path class="link" d="M426,218.9058073654391C634,218.9058073654391 634,470.20184135977337 842,470.20184135977337" style="stroke-width: 59.5963; fill: none; stroke: rgb(105, 148, 191); stroke-opacity: 0.4;"><title>561</title></path><path class="link" d="M426,24.64589235127479C634,24.64589235127479 634,24.64589235127479 842,24.64589235127479" style="stroke-width: 49.2918; fill: none; stroke: rgb(191, 105, 191); stroke-opacity: 0.4;"><title>464</title></path><path class="link" d="M5,181.01983002832858C213,181.01983002832858 213,282.6062322946176 421,282.6062322946176" style="stroke-width: 47.8045; fill: none; stroke: rgb(191, 191, 105); stroke-opacity: 0.4;"><title>450</title></path><path class="link" d="M426,109.20679886685552C634,109.20679886685552 634,378.7747875354107 842,378.7747875354107" style="stroke-width: 43.3428; fill: none; stroke: rgb(191, 105, 191); stroke-opacity: 0.4;"><title>408</title></path><path class="link" d="M5,226.43413597733706C213,226.43413597733706 213,369.5715297450425 421,369.5715297450425" style="stroke-width: 43.0241; fill: none; stroke: rgb(191, 191, 105); stroke-opacity: 0.4;"><title>405</title></path><path class="link" d="M426,68.41359773371104C634,68.41359773371104 634,205.1628895184136 842,205.1628895184136" style="stroke-width: 38.2436; fill: none; stroke: rgb(191, 105, 191); stroke-opacity: 0.4;"><title>360</title></path><path class="link" d="M5,143.99787535410763C213,143.99787535410763 213,153.99787535410763 421,153.99787535410763" style="stroke-width: 26.2394; fill: none; stroke: rgb(191, 191, 105); stroke-opacity: 0.4;"><title>247</title></path><path class="link" d="M5,395.9560906515581C213,395.9560906515581 213,445.913597733711 421,445.913597733711" style="stroke-width: 25.4958; fill: none; stroke: rgb(191, 105, 105); stroke-opacity: 0.4;"><title>240</title></path><path class="link" d="M426,150.014164305949C634,150.014164305949 634,58.42776203966006 842,58.42776203966006" style="stroke-width: 18.272; fill: none; stroke: rgb(105, 148, 191); stroke-opacity: 0.4;"><title>172</title></path><path class="link" d="M426,167.86118980169974C634,167.86118980169974 634,232.9957507082153 842,232.9957507082153" style="stroke-width: 17.4221; fill: none; stroke: rgb(105, 148, 191); stroke-opacity: 0.4;"><title>164</title></path><path class="link" d="M5,438.35694050991503C213,438.35694050991503 213,488.314447592068 421,488.314447592068" style="stroke-width: 14.8725; fill: none; stroke: rgb(105, 191, 148); stroke-opacity: 0.4;"><title>140</title></path><path class="link" d="M5,344.04745042492914C213,344.04745042492914 213,398.25424929178473 421,398.25424929178473" style="stroke-width: 14.3414; fill: none; stroke: rgb(105, 191, 105); stroke-opacity: 0.4;"><title>135</title></path><path class="link" d="M426,452.5C634,452.5 634,248.39943342776206 842,248.39943342776206" style="stroke-width: 13.3853; fill: none; stroke: rgb(105, 105, 191); stroke-opacity: 0.4;"><title>126</title></path><path class="link" d="M426,439.4865439093484C634,439.4865439093484 634,73.88456090651559 842,73.88456090651559" style="stroke-width: 12.6416; fill: none; stroke: rgb(105, 105, 191); stroke-opacity: 0.4;"><title>119</title></path><path class="link" d="M5,330.60906515580734C213,330.60906515580734 213,312.77620396600565 421,312.77620396600565" style="stroke-width: 12.5354; fill: none; stroke: rgb(105, 191, 105); stroke-opacity: 0.4;"><title>118</title></path><path class="link" d="M426,182.83994334277617C634,182.83994334277617 634,406.71388101983 842,406.71388101983" style="stroke-width: 12.5354; fill: none; stroke: rgb(105, 148, 191); stroke-opacity: 0.4;"><title>118</title></path><path class="link" d="M5,473.5871104815864C213,473.5871104815864 213,464.76983002832856 421,464.76983002832856" style="stroke-width: 12.2167; fill: none; stroke: rgb(191, 148, 105); stroke-opacity: 0.4;"><title>115</title></path><path class="link" d="M426,465.03541076487255C634,465.03541076487255 634,418.8243626062323 842,418.8243626062323" style="stroke-width: 11.6856; fill: none; stroke: rgb(105, 105, 191); stroke-opacity: 0.4;"><title>110</title></path><path class="link" d="M5,378.3746458923513C213,378.3746458923513 213,410.2584985835694 421,410.2584985835694" style="stroke-width: 9.66714; fill: none; stroke: rgb(191, 105, 105); stroke-opacity: 0.4;"><title>91</title></path><path class="link" d="M426,490.8109065155807C634,490.8109065155807 634,258.5446175637394 842,258.5446175637394" style="stroke-width: 6.9051; fill: none; stroke: rgb(191, 105, 148); stroke-opacity: 0.4;"><title>65</title></path><path class="link" d="M426,484.11827195467424C634,484.11827195467424 634,83.44546742209633 842,83.44546742209633" style="stroke-width: 6.48017; fill: none; stroke: rgb(191, 105, 148); stroke-opacity: 0.4;"><title>61</title></path><path class="link" d="M5,364.40509915014167C213,364.40509915014167 213,236.699716713881 421,236.699716713881" style="stroke-width: 6.37394; fill: none; stroke: rgb(191, 105, 105); stroke-opacity: 0.4;"><title>60</title></path><path class="link" d="M5,370.5665722379604C213,370.5665722379604 213,322.01841359773374 421,322.01841359773374" style="stroke-width: 5.94901; fill: none; stroke: rgb(191, 105, 105); stroke-opacity: 0.4;"><title>56</title></path><path class="link" d="M426,497.1317280453258C634,497.1317280453258 634,427.5354107648725 842,427.5354107648725" style="stroke-width: 5.73654; fill: none; stroke: rgb(191, 105, 148); stroke-opacity: 0.4;"><title>54</title></path><path class="link" d="M5,462.06090651558077C213,462.06090651558077 213,332.2167138810198 421,332.2167138810198" style="stroke-width: 5.52408; fill: none; stroke: rgb(191, 148, 105); stroke-opacity: 0.4;"><title>52</title></path><path class="link" d="M5,424.971671388102C213,424.971671388102 213,327.22379603399435 421,327.22379603399435" style="stroke-width: 4.46176; fill: none; stroke: rgb(105, 191, 148); stroke-opacity: 0.4;"><title>42</title></path><path class="link" d="M5,497.8753541076488C213,497.8753541076488 213,497.8753541076487 421,497.8753541076487" style="stroke-width: 4.24929; fill: none; stroke: rgb(148, 191, 105); stroke-opacity: 0.4;"><title>40</title></path><path class="link" d="M5,420.7223796033994C213,420.7223796033994 213,241.90509915014164 421,241.90509915014164" style="stroke-width: 4.03683; fill: none; stroke: rgb(105, 191, 148); stroke-opacity: 0.4;"><title>38</title></path><path class="link" d="M5,429.0616147308782C213,429.0616147308782 213,416.9511331444759 421,416.9511331444759" style="stroke-width: 3.71813; fill: none; stroke: rgb(105, 191, 148); stroke-opacity: 0.4;"><title>35</title></path><path class="link" d="M5,457.5460339943343C213,457.5460339943343 213,245.67634560906515 421,245.67634560906515" style="stroke-width: 3.50567; fill: none; stroke: rgb(191, 148, 105); stroke-opacity: 0.4;"><title>33</title></path><path class="link" d="M5,492.5106232294618C213,492.5106232294618 213,336.5191218130312 421,336.5191218130312" style="stroke-width: 3.08074; fill: none; stroke: rgb(148, 191, 105); stroke-opacity: 0.4;"><title>29</title></path><path class="link" d="M5,466.15084985835693C213,466.15084985835693 213,420.1381019830028 421,420.1381019830028" style="stroke-width: 2.65581; fill: none; stroke: rgb(191, 148, 105); stroke-opacity: 0.4;"><title>25</title></path><path class="link" d="M5,494.900849858357C213,494.900849858357 213,422.3158640226629 421,422.3158640226629" style="stroke-width: 1.69972; fill: none; stroke: rgb(148, 191, 105); stroke-opacity: 0.4;"><title>16</title></path><path class="link" d="M5,490.33286118980175C213,490.33286118980175 213,248.06657223796034 421,248.06657223796034" style="stroke-width: 1.27479; fill: none; stroke: rgb(148, 191, 105); stroke-opacity: 0.4;"><title>12</title></path></g><g><g class="node" transform="translate(0,361.21813031161474)"><rect height="47.48583569405099" width="5"><title>barrels
447</title></rect><text x="11" y="23.742917847025495" dy=".35em" text-anchor="start" style="font-size: 11px; font-family: Arial, Helvetica; pointer-events: none;">barrels</text></g><g class="node" transform="translate(0,455.7932011331445)"><rect height="23.902266288951843" width="5"><title>bolts
225</title></rect><text x="11" y="11.951133144475921" dy=".35em" text-anchor="start" style="font-size: 11px; font-family: Arial, Helvetica; pointer-events: none;">bolts</text></g><g class="node" transform="translate(0,0)"><rect height="247.94617563739376" width="5"><title>fuel
2,334</title></rect><text x="11" y="123.97308781869688" dy=".35em" text-anchor="start" style="font-size: 11px; font-family: Arial, Helvetica; pointer-events: none;">fuel</text></g><g class="node" transform="translate(0,489.6954674220964)"><rect height="10.304532577903682" width="5"><title>nuts
97</title></rect><text x="11" y="5.152266288951841" dy=".35em" text-anchor="start" style="font-size: 11px; font-family: Arial, Helvetica; pointer-events: none;">nuts</text></g><g class="node" transform="translate(0,257.94617563739376)"><rect height="93.27195467422096" width="5"><title>people
878</title></rect><text x="11" y="46.63597733711048" dy=".35em" text-anchor="start" style="font-size: 11px; font-family: Arial, Helvetica; pointer-events: none;">people</text></g><g class="node" transform="translate(0,418.70396600566573)"><rect height="27.089235127478755" width="5"><title>screwdriver
255</title></rect><text x="11" y="13.544617563739378" dy=".35em" text-anchor="start" style="font-size: 11px; font-family: Arial, Helvetica; pointer-events: none;">screwdriver</text></g><g class="node" transform="translate(842,186.04107648725213)"><rect height="75.95609065155807" width="5" style="fill: rgb(102, 102, 102);"><title>Rig1
715</title></rect><text x="-6" y="37.978045325779036" dy=".35em" text-anchor="end" style="font-size: 11px; font-family: Arial, Helvetica; pointer-events: none;">Rig1</text></g><g class="node" transform="translate(842,0)"><rect height="86.68555240793201" width="5" style="fill: rgb(102, 102, 102);"><title>Rig2
816</title></rect><text x="-6" y="43.342776203966004" dy=".35em" text-anchor="end" style="font-size: 11px; font-family: Arial, Helvetica; pointer-events: none;">Rig2</text></g><g class="node" transform="translate(842,357.10339943342774)"><rect height="73.30028328611898" width="5" style="fill: rgb(102, 102, 102);"><title>Rig3
690</title></rect><text x="-6" y="36.65014164305949" dy=".35em" text-anchor="end" style="font-size: 11px; font-family: Arial, Helvetica; pointer-events: none;">Rig3</text></g><g class="node" transform="translate(842,440.40368271954674)"><rect height="59.596317280453256" width="5" style="fill: rgb(102, 102, 102);"><title>Rig4
561</title></rect><text x="-6" y="29.798158640226628" dy=".35em" text-anchor="end" style="font-size: 11px; font-family: Arial, Helvetica; pointer-events: none;">Rig4</text></g><g class="node" transform="translate(842,96.68555240793201)"><rect height="79.35552407932012" width="5" style="fill: rgb(102, 102, 102);"><title>Rig5
747</title></rect><text x="-6" y="39.67776203966006" dy=".35em" text-anchor="end" style="font-size: 11px; font-family: Arial, Helvetica; pointer-events: none;">Rig5</text></g><g class="node" transform="translate(842,271.9971671388102)"><rect height="75.10623229461757" width="5" style="fill: rgb(102, 102, 102);"><title>Rig6
707</title></rect><text x="-6" y="37.553116147308785" dy=".35em" text-anchor="end" style="font-size: 11px; font-family: Arial, Helvetica; pointer-events: none;">Rig6</text></g><g class="node" transform="translate(421,480.8781869688385)"><rect height="19.121813031161473" width="5"><title>Vessel1
180</title></rect><text x="11" y="9.560906515580736" dy=".35em" text-anchor="start" style="font-size: 11px; font-family: Arial, Helvetica; pointer-events: none;">Vessel1</text></g><g class="node" transform="translate(421,433.1657223796034)"><rect height="37.712464589235125" width="5"><title>Vessel2
355</title></rect><text x="11" y="18.856232294617563" dy=".35em" text-anchor="start" style="font-size: 11px; font-family: Arial, Helvetica; pointer-events: none;">Vessel2</text></g><g class="node" transform="translate(421,0)"><rect height="130.87818696883852" width="5"><title>Vessel3
1,232</title></rect><text x="11" y="65.43909348441926" dy=".35em" text-anchor="start" style="font-size: 11px; font-family: Arial, Helvetica; pointer-events: none;">Vessel3</text></g><g class="node" transform="translate(421,140.87818696883852)"><rect height="107.8257790368272" width="5"><title>Vessel4
1,015</title></rect><text x="11" y="53.9128895184136" dy=".35em" text-anchor="start" style="font-size: 11px; font-family: Arial, Helvetica; pointer-events: none;">Vessel4</text></g><g class="node" transform="translate(421,258.70396600566573)"><rect height="79.35552407932012" width="5"><title>Vessel5
747</title></rect><text x="11" y="39.67776203966006" dy=".35em" text-anchor="start" style="font-size: 11px; font-family: Arial, Helvetica; pointer-events: none;">Vessel5</text></g><g class="node" transform="translate(421,348.05949008498584)"><rect height="75.10623229461757" width="5"><title>Vessel6
707</title></rect><text x="11" y="37.553116147308785" dy=".35em" text-anchor="start" style="font-size: 11px; font-family: Arial, Helvetica; pointer-events: none;">Vessel6</text></g></g></g></svg>