<svg width="847" height="520" xmlns="http://www.w3.org/2000/svg" version="1.1"><g transform="translate(0,10)"><g><path class="link" d="M5,123.97308781869688C213,123.97308781869688 213,123.97308781869688 421,123.97308781869688" style="stroke-width: 247.946; fill: none; stroke: rgb(191, 191, 105); stroke-opacity: 0.4;"><title>2334</title></path><path class="link" d="M5,304.58215297450425C213,304.58215297450425 213,304.58215297450425 421,304.58215297450425" style="stroke-width: 93.272; fill: none; stroke: rgb(105, 191, 105); stroke-opacity: 0.4;"><title>878</title></path><path class="link" d="M426,24.64589235127479C634,24.64589235127479 634,24.64589235127479 842,24.64589235127479" style="stroke-width: 49.2918; fill: none; stroke: rgb(105, 105, 191); stroke-opacity: 0.4;"><title>464</title></path><path class="link" d="M426,73.19405099150143C634,73.19405099150143 634,120.58781869688386 842,120.58781869688386" style="stroke-width: 47.8045; fill: none; stroke: rgb(105, 105, 191); stroke-opacity: 0.4;"><title>450</title></path><path class="link" d="M5,384.9610481586402C213,384.9610481586402 213,384.9610481586402 421,384.9610481586402" style="stroke-width: 47.4858; fill: none; stroke: rgb(191, 105, 105); stroke-opacity: 0.4;"><title>447</title></path><path class="link" d="M426,200.03541076487255C634,200.03541076487255 634,378.7747875354107 842,378.7747875354107" style="stroke-width: 43.3428; fill: none; stroke: rgb(105, 105, 191); stroke-opacity: 0.4;"><title>408</title></path><path class="link" d="M426,156.85198300283287C634,156.85198300283287 634,293.50920679886684 842,293.50920679886684" style="stroke-width: 43.0241; fill: none; stroke: rgb(105, 105, 191); stroke-opacity: 0.4;"><title>405</title></path><path class="link" d="M426,116.21813031161474C634,116.21813031161474 634,205.1628895184136 842,205.1628895184136" style="stroke-width: 38.2436; fill: none; stroke: rgb(105, 105, 191); stroke-opacity: 0.4;"><title>360</title></path><path class="link" d="M5,432.2485835694051C213,432.2485835694051 213,432.2485835694051 421,432.2485835694051" style="stroke-width: 27.0892; fill: none; stroke: rgb(105, 191, 148); stroke-opacity: 0.4;"><title>255</title></path><path class="link" d="M426,234.82648725212465C634,234.82648725212465 634,453.52337110481585 842,453.52337110481585" style="stroke-width: 26.2394; fill: none; stroke: rgb(105, 105, 191); stroke-opacity: 0.4;"><title>247</title></path><path class="link" d="M5,467.74433427762045C213,467.74433427762045 213,467.74433427762045 421,467.74433427762045" style="stroke-width: 23.9023; fill: none; stroke: rgb(191, 148, 105); stroke-opacity: 0.4;"><title>225</title></path><path class="link" d="M426,267.08215297450425C634,267.08215297450425 634,58.42776203966006 842,58.42776203966006" style="stroke-width: 18.272; fill: none; stroke: rgb(191, 105, 191); stroke-opacity: 0.4;"><title>172</title></path><path class="link" d="M426,342.135269121813C634,342.135269121813 634,475.72592067988666 842,475.72592067988666" style="stroke-width: 18.1657; fill: none; stroke: rgb(191, 105, 191); stroke-opacity: 0.4;"><title>171</title></path><path class="link" d="M426,297.46458923512745C634,297.46458923512745 634,232.9957507082153 842,232.9957507082153" style="stroke-width: 17.4221; fill: none; stroke: rgb(191, 105, 191); stroke-opacity: 0.4;"><title>164</title></path><path class="link" d="M426,313.34631728045326C634,313.34631728045326 634,322.1919263456091 842,322.1919263456091" style="stroke-width: 14.3414; fill: none; stroke: rgb(191, 105, 191); stroke-opacity: 0.4;"><title>135</title></path><path class="link" d="M426,282.485835694051C634,282.485835694051 634,150.75779036827194 842,150.75779036827194" style="stroke-width: 12.5354; fill: none; stroke: rgb(191, 105, 191); stroke-opacity: 0.4;"><title>118</title></path><path class="link" d="M426,326.78470254957506C634,326.78470254957506 634,406.71388101983 842,406.71388101983" style="stroke-width: 12.5354; fill: none; stroke: rgb(191, 105, 191); stroke-opacity: 0.4;"><title>118</title></path><path class="link" d="M5,494.84773371104825C213,494.84773371104825 213,494.84773371104825 421,494.84773371104825" style="stroke-width: 10.3045; fill: none; stroke: rgb(148, 191, 105); stroke-opacity: 0.4;"><title>97</title></path><path class="link" d="M426,379.59631728045326C634,379.59631728045326 634,246.8059490084986 842,246.8059490084986" style="stroke-width: 10.1983; fill: none; stroke: rgb(105, 191, 191); stroke-opacity: 0.4;"><title>96</title></path><path class="link" d="M426,389.52903682719545C634,389.52903682719545 634,334.19617563739376 842,334.19617563739376" style="stroke-width: 9.66714; fill: none; stroke: rgb(105, 191, 191); stroke-opacity: 0.4;"><title>91</title></path><path class="link" d="M426,398.34631728045326C634,398.34631728045326 634,416.9652974504249 842,416.9652974504249" style="stroke-width: 7.96742; fill: none; stroke: rgb(105, 191, 191); stroke-opacity: 0.4;"><title>75</title></path><path class="link" d="M426,364.8831444759207C634,364.8831444759207 634,71.22875354107649 842,71.22875354107649" style="stroke-width: 7.33003; fill: none; stroke: rgb(105, 191, 191); stroke-opacity: 0.4;"><title>69</title></path><path class="link" d="M426,405.5169971671388C634,405.5169971671388 634,487.99575070821527 842,487.99575070821527" style="stroke-width: 6.37394; fill: none; stroke: rgb(105, 191, 191); stroke-opacity: 0.4;"><title>60</title></path><path class="link" d="M426,371.5226628895184C634,371.5226628895184 634,160 842,160" style="stroke-width: 5.94901; fill: none; stroke: rgb(105, 191, 191); stroke-opacity: 0.4;"><title>56</title></path><path class="link" d="M426,463.86685552407937C634,463.86685552407937 634,170.1983002832861 842,170.1983002832861" style="stroke-width: 5.52408; fill: none; stroke: rgb(105, 148, 191); stroke-opacity: 0.4;"><title>52</title></path><path class="link" d="M426,458.4490084985836C634,458.4490084985836 634,82.43626062322946 842,82.43626062322946" style="stroke-width: 5.31161; fill: none; stroke: rgb(105, 148, 191); stroke-opacity: 0.4;"><title>50</title></path><path class="link" d="M426,439.15368271954674C634,439.15368271954674 634,423.55169971671387 842,423.55169971671387" style="stroke-width: 5.20538; fill: none; stroke: rgb(191, 105, 148); stroke-opacity: 0.4;"><title>49</title></path><path class="link" d="M426,421.1473087818697C634,421.1473087818697 634,77.33711048158641 842,77.33711048158641" style="stroke-width: 4.88669; fill: none; stroke: rgb(191, 105, 148); stroke-opacity: 0.4;"><title>46</title></path><path class="link" d="M426,430.4426345609065C634,430.4426345609065 634,254.29532577903683 842,254.29532577903683" style="stroke-width: 4.78045; fill: none; stroke: rgb(191, 105, 148); stroke-opacity: 0.4;"><title>45</title></path><path class="link" d="M426,425.8215297450425C634,425.8215297450425 634,165.20538243626063 842,165.20538243626063" style="stroke-width: 4.46176; fill: none; stroke: rgb(191, 105, 148); stroke-opacity: 0.4;"><title>42</title></path><path class="link" d="M426,443.7747875354107C634,443.7747875354107 634,493.2011331444759 842,493.2011331444759" style="stroke-width: 4.03683; fill: none; stroke: rgb(191, 105, 148); stroke-opacity: 0.4;"><title>38</title></path><path class="link" d="M426,434.69192634560903C634,434.69192634560903 634,340.88881019830023 842,340.88881019830023" style="stroke-width: 3.71813; fill: none; stroke: rgb(191, 105, 148); stroke-opacity: 0.4;"><title>35</title></path><path class="link" d="M426,474.3307365439094C634,474.3307365439094 634,428.0134560906515 842,428.0134560906515" style="stroke-width: 3.71813; fill: none; stroke: rgb(105, 148, 191); stroke-opacity: 0.4;"><title>35</title></path><path class="link" d="M426,477.9426345609066C634,477.9426345609066 634,496.9723796033994 842,496.9723796033994" style="stroke-width: 3.50567; fill: none; stroke: rgb(105, 148, 191); stroke-opacity: 0.4;"><title>33</title></path><path class="link" d="M426,468.2223796033995C634,468.2223796033995 634,258.27903682719545 842,258.27903682719545" style="stroke-width: 3.18697; fill: none; stroke: rgb(105, 148, 191); stroke-opacity: 0.4;"><title>30</title></path><path class="link" d="M426,492.8293201133145C634,492.8293201133145 634,174.50070821529744 842,174.50070821529744" style="stroke-width: 3.08074; fill: none; stroke: rgb(148, 105, 191); stroke-opacity: 0.4;"><title>29</title></path><path class="link" d="M426,471.14376770538246C634,471.14376770538246 634,344.07577903682716 842,344.07577903682716" style="stroke-width: 2.65581; fill: none; stroke: rgb(105, 148, 191); stroke-opacity: 0.4;"><title>25</title></path><path class="link" d="M426,495.4320113314448C634,495.4320113314448 634,260.93484419263456 842,260.93484419263456" style="stroke-width: 2.12465; fill: none; stroke: rgb(148, 105, 191); stroke-opacity: 0.4;"><title>20</title></path><path class="link" d="M426,497.34419263456095C634,497.34419263456095 634,346.25354107648724 842,346.25354107648724" style="stroke-width: 1.69972; fill: none; stroke: rgb(148, 105, 191); stroke-opacity: 0.4;"><title>16</title></path><path class="link" d="M426,490.4922096317281C634,490.4922096317281 634,85.88881019830029 842,85.88881019830029" style="stroke-width: 1.59348; fill: none; stroke: rgb(148, 105, 191); stroke-opacity: 0.4;"><title>15</title></path><path class="link" d="M426,499.36260623229464C634,499.36260623229464 634,499.3626062322946 842,499.3626062322946" style="stroke-width: 1.27479; fill: none; stroke: rgb(148, 105, 191); stroke-opacity: 0.4;"><title>12</title></path><path class="link" d="M426,498.4596317280454C634,498.4596317280454 634,430.1381019830028 842,430.1381019830028" style="stroke-width: 1; fill: none; stroke: rgb(148, 105, 191); stroke-opacity: 0.4;"><title>5</title></path></g><g><g class="node" transform="translate(0,361.21813031161474)"><rect height="47.48583569405099" width="5"><title>barrels
447</title></rect><text x="11" y="23.742917847025495" dy=".35em" text-anchor="start" style="font-size: 11px; font-family: Arial, Helvetica; pointer-events: none;">barrels</text></g><g class="node" transform="translate(0,455.7932011331445)"><rect height="23.902266288951843" width="5"><title>bolts
225</title></rect><text x="11" y="11.951133144475921" dy=".35em" text-anchor="start" style="font-size: 11px; font-family: Arial, Helvetica; pointer-events: none;">bolts</text></g><g class="node" transform="translate(0,0)"><rect height="247.94617563739376" width="5"><title>fuel
2,334</title></rect><text x="11" y="123.97308781869688" dy=".35em" text-anchor="start" style="font-size: 11px; font-family: Arial, Helvetica; pointer-events: none;">fuel</text></g><g class="node" transform="translate(0,489.6954674220964)"><rect height="10.304532577903682" width="5"><title>nuts
97</title></rect><text x="11" y="5.152266288951841" dy=".35em" text-anchor="start" style="font-size: 11px; font-family: Arial, Helvetica; pointer-events: none;">nuts</text></g><g class="node" transform="translate(0,257.94617563739376)"><rect height="93.27195467422096" width="5"><title>people
878</title></rect><text x="11" y="46.63597733711048" dy=".35em" text-anchor="start" style="font-size: 11px; font-family: Arial, Helvetica; pointer-events: none;">people</text></g><g class="node" transform="translate(0,418.70396600566573)"><rect height="27.089235127478755" width="5"><title>screwdriver
255</title></rect><text x="11" y="13.544617563739378" dy=".35em" text-anchor="start" style="font-size: 11px; font-family: Arial, Helvetica; pointer-events: none;">screwdriver</text></g><g class="node" transform="translate(842,186.04107648725213)"><rect height="75.95609065155807" width="5" style="fill: rgb(102, 102, 102);"><title>Rig1
715</title></rect><text x="-6" y="37.978045325779036" dy=".35em" text-anchor="end" style="font-size: 11px; font-family: Arial, Helvetica; pointer-events: none;">Rig1</text></g><g class="node" transform="translate(842,0)"><rect height="86.68555240793201" width="5" style="fill: rgb(102, 102, 102);"><title>Rig2
816</title></rect><text x="-6" y="43.342776203966004" dy=".35em" text-anchor="end" style="font-size: 11px; font-family: Arial, Helvetica; pointer-events: none;">Rig2</text></g><g class="node" transform="translate(842,357.10339943342774)"><rect height="73.30028328611898" width="5" style="fill: rgb(102, 102, 102);"><title>Rig3
690</title></rect><text x="-6" y="36.65014164305949" dy=".35em" text-anchor="end" style="font-size: 11px; font-family: Arial, Helvetica; pointer-events: none;">Rig3</text></g><g class="node" transform="translate(842,440.40368271954674)"><rect height="59.596317280453256" width="5" style="fill: rgb(102, 102, 102);"><title>Rig4
561</title></rect><text x="-6" y="29.798158640226628" dy=".35em" text-anchor="end" style="font-size: 11px; font-family: Arial, Helvetica; pointer-events: none;">Rig4</text></g><g class="node" transform="translate(842,96.68555240793201)"><rect height="79.35552407932012" width="5" style="fill: rgb(102, 102, 102);"><title>Rig5
747</title></rect><text x="-6" y="39.67776203966006" dy=".35em" text-anchor="end" style="font-size: 11px; font-family: Arial, Helvetica; pointer-events: none;">Rig5</text></g><g class="node" transform="translate(842,271.9971671388102)"><rect height="75.10623229461757" width="5" style="fill: rgb(102, 102, 102);"><title>Rig6
707</title></rect><text x="-6" y="37.553116147308785" dy=".35em" text-anchor="end" style="font-size: 11px; font-family: Arial, Helvetica; pointer-events: none;">Rig6</text></g><g class="node" transform="translate(421,418.70396600566573)"><rect height="27.089235127478755" width="5"><title>Vessel1
255</title></rect><text x="11" y="13.544617563739378" dy=".35em" text-anchor="start" style="font-size: 11px; font-family: Arial, Helvetica; pointer-events: none;">Vessel1</text></g><g class="node" transform="translate(421,489.6954674220964)"><rect height="10.304532577903682" width="5"><title>Vessel2
97</title></rect><text x="11" y="5.152266288951841" dy=".35em" text-anchor="start" style="font-size: 11px; font-family: Arial, Helvetica; pointer-events: none;">Vessel2</text></g><g class="node" transform="translate(421,455.7932011331445)"><rect height="23.902266288951843" width="5"><title>Vessel3
225</title></rect><text x="11" y="11.951133144475921" dy=".35em" text-anchor="start" style="font-size: 11px; font-family: Arial, Helvetica; pointer-events: none;">Vessel3</text></g><g class="node" transform="translate(421,361.21813031161474)"><rect height="47.48583569405099" width="5"><title>Vessel4
447</title></rect><text x="11" y="23.742917847025495" dy=".35em" text-anchor="start" style="font-size: 11px; font-family: Arial, Helvetica; pointer-events: none;">Vessel4</text></g><g class="node" transform="translate(421,0)"><rect height="247.94617563739376" width="5"><title>Vessel5
2,334</title></rect><text x="11" y="123.97308781869688" dy=".35em" text-anchor="start" style="font-size: 11px; font-family: Arial, Helvetica; pointer-events: none;">Vessel5</text></g><g class="node" transform="translate(421,257.94617563739376)"><rect height="93.27195467422096" width="5"><title>Vessel6
878</title></rect><text x="11" y="46.63597733711048" dy=".35em" text-anchor="start" style="font-size: 11px; font-family: Arial, Helvetica; pointer-events: none;">Vessel6</text></g></g></g></svg>