<svg width="847" height="520" xmlns="http://www.w3.org/2000/svg" version="1.1"><g transform="translate(0,10)"><g><path class="link" d="M426,43.342776203966004C634,43.342776203966004 634,43.342776203966004 842,43.342776203966004" style="stroke-width: 86.6856; fill: none; stroke: rgb(148, 105, 191); stroke-opacity: 0.4;"><title>816</title></path><path class="link" d="M426,136.36331444759207C634,136.36331444759207 634,136.36331444759207 842,136.36331444759207" style="stroke-width: 79.3555; fill: none; stroke: rgb(191, 105, 148); stroke-opacity: 0.4;"><title>747</title></path><path class="link" d="M426,224.01912181303118C634,224.01912181303118 634,224.01912181303118 842,224.01912181303118" style="stroke-width: 75.9561; fill: none; stroke: rgb(191, 105, 191); stroke-opacity: 0.4;"><title>715</title></path><path class="link" d="M426,309.550283286119C634,309.550283286119 634,309.550283286119 842,309.550283286119" style="stroke-width: 75.1062; fill: none; stroke: rgb(105, 191, 191); stroke-opacity: 0.4;"><title>707</title></path><path class="link" d="M426,393.75354107648724C634,393.75354107648724 634,393.75354107648724 842,393.75354107648724" style="stroke-width: 73.3003; fill: none; stroke: rgb(105, 105, 191); stroke-opacity: 0.4;"><title>690</title></path><path class="link" d="M426,470.20184135977337C634,470.20184135977337 634,470.20184135977337 842,470.20184135977337" style="stroke-width: 59.5963; fill: none; stroke: rgb(105, 148, 191); stroke-opacity: 0.4;"><title>561</title></path><path class="link" d="M5,24.64589235127479C213,24.64589235127479 213,24.64589235127479 421,24.64589235127479" style="stroke-width: 49.2918; fill: none; stroke: rgb(191, 191, 105); stroke-opacity: 0.4;"><title>464</title></path><path class="link" d="M5,73.19405099150143C213,73.19405099150143 213,120.58781869688386 421,120.58781869688386" style="stroke-width: 47.8045; fill: none; stroke: rgb(191, 191, 105); stroke-opacity: 0.4;"><title>450</title></path><path class="link" d="M5,200.03541076487255C213,200.03541076487255 213,378.7747875354107 421,378.7747875354107" style="stroke-width: 43.3428; fill: none; stroke: rgb(191, 191, 105); stroke-opacity: 0.4;"><title>408</title></path><path class="link" d="M5,156.85198300283287C213,156.85198300283287 213,293.50920679886684 421,293.50920679886684" style="stroke-width: 43.0241; fill: none; stroke: rgb(191, 191, 105); stroke-opacity: 0.4;"><title>405</title></path><path class="link" d="M5,116.21813031161474C213,116.21813031161474 213,205.1628895184136 421,205.1628895184136" style="stroke-width: 38.2436; fill: none; stroke: rgb(191, 191, 105); stroke-opacity: 0.4;"><title>360</title></path><path class="link" d="M5,234.82648725212465C213,234.82648725212465 213,453.52337110481585 421,453.52337110481585" style="stroke-width: 26.2394; fill: none; stroke: rgb(191, 191, 105); stroke-opacity: 0.4;"><title>247</title></path><path class="link" d="M5,267.08215297450425C213,267.08215297450425 213,58.42776203966006 421,58.42776203966006" style="stroke-width: 18.272; fill: none; stroke: rgb(105, 191, 105); stroke-opacity: 0.4;"><title>172</title></path><path class="link" d="M5,342.135269121813C213,342.135269121813 213,475.72592067988666 421,475.72592067988666" style="stroke-width: 18.1657; fill: none; stroke: rgb(105, 191, 105); stroke-opacity: 0.4;"><title>171</title></path><path class="link" d="M5,297.46458923512745C213,297.46458923512745 213,232.9957507082153 421,232.9957507082153" style="stroke-width: 17.4221; fill: none; stroke: rgb(105, 191, 105); stroke-opacity: 0.4;"><title>164</title></path><path class="link" d="M5,313.34631728045326C213,313.34631728045326 213,322.1919263456091 421,322.1919263456091" style="stroke-width: 14.3414; fill: none; stroke: rgb(105, 191, 105); stroke-opacity: 0.4;"><title>135</title></path><path class="link" d="M5,282.485835694051C213,282.485835694051 213,150.75779036827194 421,150.75779036827194" style="stroke-width: 12.5354; fill: none; stroke: rgb(105, 191, 105); stroke-opacity: 0.4;"><title>118</title></path><path class="link" d="M5,326.78470254957506C213,326.78470254957506 213,406.71388101983 421,406.71388101983" style="stroke-width: 12.5354; fill: none; stroke: rgb(105, 191, 105); stroke-opacity: 0.4;"><title>118</title></path><path class="link" d="M5,379.59631728045326C213,379.59631728045326 213,246.8059490084986 421,246.8059490084986" style="stroke-width: 10.1983; fill: none; stroke: rgb(191, 105, 105); stroke-opacity: 0.4;"><title>96</title></path><path class="link" d="M5,389.52903682719545C213,389.52903682719545 213,334.19617563739376 421,334.19617563739376" style="stroke-width: 9.66714; fill: none; stroke: rgb(191, 105, 105); stroke-opacity: 0.4;"><title>91</title></path><path class="link" d="M5,398.34631728045326C213,398.34631728045326 213,416.9652974504249 421,416.9652974504249" style="stroke-width: 7.96742; fill: none; stroke: rgb(191, 105, 105); stroke-opacity: 0.4;"><title>75</title></path><path class="link" d="M5,364.8831444759207C213,364.8831444759207 213,71.22875354107649 421,71.22875354107649" style="stroke-width: 7.33003; fill: none; stroke: rgb(191, 105, 105); stroke-opacity: 0.4;"><title>69</title></path><path class="link" d="M5,405.5169971671388C213,405.5169971671388 213,487.99575070821527 421,487.99575070821527" style="stroke-width: 6.37394; fill: none; stroke: rgb(191, 105, 105); stroke-opacity: 0.4;"><title>60</title></path><path class="link" d="M5,371.5226628895184C213,371.5226628895184 213,160 421,160" style="stroke-width: 5.94901; fill: none; stroke: rgb(191, 105, 105); stroke-opacity: 0.4;"><title>56</title></path><path class="link" d="M5,463.86685552407937C213,463.86685552407937 213,170.1983002832861 421,170.1983002832861" style="stroke-width: 5.52408; fill: none; stroke: rgb(191, 148, 105); stroke-opacity: 0.4;"><title>52</title></path><path class="link" d="M5,458.4490084985836C213,458.4490084985836 213,82.43626062322946 421,82.43626062322946" style="stroke-width: 5.31161; fill: none; stroke: rgb(191, 148, 105); stroke-opacity: 0.4;"><title>50</title></path><path class="link" d="M5,439.15368271954674C213,439.15368271954674 213,423.55169971671387 421,423.55169971671387" style="stroke-width: 5.20538; fill: none; stroke: rgb(105, 191, 148); stroke-opacity: 0.4;"><title>49</title></path><path class="link" d="M5,421.1473087818697C213,421.1473087818697 213,77.33711048158641 421,77.33711048158641" style="stroke-width: 4.88669; fill: none; stroke: rgb(105, 191, 148); stroke-opacity: 0.4;"><title>46</title></path><path class="link" d="M5,430.4426345609065C213,430.4426345609065 213,254.29532577903683 421,254.29532577903683" style="stroke-width: 4.78045; fill: none; stroke: rgb(105, 191, 148); stroke-opacity: 0.4;"><title>45</title></path><path class="link" d="M5,425.8215297450425C213,425.8215297450425 213,165.20538243626063 421,165.20538243626063" style="stroke-width: 4.46176; fill: none; stroke: rgb(105, 191, 148); stroke-opacity: 0.4;"><title>42</title></path><path class="link" d="M5,443.7747875354107C213,443.7747875354107 213,493.2011331444759 421,493.2011331444759" style="stroke-width: 4.03683; fill: none; stroke: rgb(105, 191, 148); stroke-opacity: 0.4;"><title>38</title></path><path class="link" d="M5,434.69192634560903C213,434.69192634560903 213,340.88881019830023 421,340.88881019830023" style="stroke-width: 3.71813; fill: none; stroke: rgb(105, 191, 148); stroke-opacity: 0.4;"><title>35</title></path><path class="link" d="M5,474.3307365439094C213,474.3307365439094 213,428.0134560906515 421,428.0134560906515" style="stroke-width: 3.71813; fill: none; stroke: rgb(191, 148, 105); stroke-opacity: 0.4;"><title>35</title></path><path class="link" d="M5,477.9426345609066C213,477.9426345609066 213,496.9723796033994 421,496.9723796033994" style="stroke-width: 3.50567; fill: none; stroke: rgb(191, 148, 105); stroke-opacity: 0.4;"><title>33</title></path><path class="link" d="M5,468.2223796033995C213,468.2223796033995 213,258.27903682719545 421,258.27903682719545" style="stroke-width: 3.18697; fill: none; stroke: rgb(191, 148, 105); stroke-opacity: 0.4;"><title>30</title></path><path class="link" d="M5,492.8293201133145C213,492.8293201133145 213,174.50070821529744 421,174.50070821529744" style="stroke-width: 3.08074; fill: none; stroke: rgb(148, 191, 105); stroke-opacity: 0.4;"><title>29</title></path><path class="link" d="M5,471.14376770538246C213,471.14376770538246 213,344.07577903682716 421,344.07577903682716" style="stroke-width: 2.65581; fill: none; stroke: rgb(191, 148, 105); stroke-opacity: 0.4;"><title>25</title></path><path class="link" d="M5,495.4320113314448C213,495.4320113314448 213,260.93484419263456 421,260.93484419263456" style="stroke-width: 2.12465; fill: none; stroke: rgb(148, 191, 105); stroke-opacity: 0.4;"><title>20</title></path><path class="link" d="M5,497.34419263456095C213,497.34419263456095 213,346.25354107648724 421,346.25354107648724" style="stroke-width: 1.69972; fill: none; stroke: rgb(148, 191, 105); stroke-opacity: 0.4;"><title>16</title></path><path class="link" d="M5,490.4922096317281C213,490.4922096317281 213,85.88881019830029 421,85.88881019830029" style="stroke-width: 1.59348; fill: none; stroke: rgb(148, 191, 105); stroke-opacity: 0.4;"><title>15</title></path><path class="link" d="M5,499.36260623229464C213,499.36260623229464 213,499.3626062322946 421,499.3626062322946" style="stroke-width: 1.27479; fill: none; stroke: rgb(148, 191, 105); stroke-opacity: 0.4;"><title>12</title></path><path class="link" d="M5,498.4596317280454C213,498.4596317280454 213,430.1381019830028 421,430.1381019830028" style="stroke-width: 1; fill: none; stroke: rgb(148, 191, 105); stroke-opacity: 0.4;"><title>5</title></path></g><g><g class="node" transform="translate(0,361.21813031161474)"><rect height="47.48583569405099" width="5"><title>barrels
447</title></rect><text x="11" y="23.742917847025495" dy=".35em" text-anchor="start" style="font-size: 11px; font-family: Arial, Helvetica; pointer-events: none;">barrels</text></g><g class="node" transform="translate(0,455.7932011331445)"><rect height="23.902266288951843" width="5"><title>bolts
225</title></rect><text x="11" y="11.951133144475921" dy=".35em" text-anchor="start" style="font-size: 11px; font-family: Arial, Helvetica; pointer-events: none;">bolts</text></g><g class="node" transform="translate(0,0)"><rect height="247.94617563739376" width="5"><title>fuel
2,334</title></rect><text x="11" y="123.97308781869688" dy=".35em" text-anchor="start" style="font-size: 11px; font-family: Arial, Helvetica; pointer-events: none;">fuel</text></g><g class="node" transform="translate(0,489.6954674220964)"><rect height="10.304532577903682" width="5"><title>nuts
97</title></rect><text x="11" y="5.152266288951841" dy=".35em" text-anchor="start" style="font-size: 11px; font-family: Arial, Helvetica; pointer-events: none;">nuts</text></g><g class="node" transform="translate(0,257.94617563739376)"><rect height="93.27195467422096" width="5"><title>people
878</title></rect><text x="11" y="46.63597733711048" dy=".35em" text-anchor="start" style="font-size: 11px; font-family: Arial, Helvetica; pointer-events: none;">people</text></g><g class="node" transform="translate(0,418.70396600566573)"><rect height="27.089235127478755" width="5"><title>screwdriver
255</title></rect><text x="11" y="13.544617563739378" dy=".35em" text-anchor="start" style="font-size: 11px; font-family: Arial, Helvetica; pointer-events: none;">screwdriver</text></g><g class="node" transform="translate(842,186.04107648725213)"><rect height="75.95609065155807" width="5" style="fill: rgb(102, 102, 102);"><title>Rig1
715</title></rect><text x="-6" y="37.978045325779036" dy=".35em" text-anchor="end" style="font-size: 11px; font-family: Arial, Helvetica; pointer-events: none;">Rig1</text></g><g class="node" transform="translate(842,0)"><rect height="86.68555240793201" width="5" style="fill: rgb(102, 102, 102);"><title>Rig2
816</title></rect><text x="-6" y="43.342776203966004" dy=".35em" text-anchor="end" style="font-size: 11px; font-family: Arial, Helvetica; pointer-events: none;">Rig2</text></g><g class="node" transform="translate(842,357.10339943342774)"><rect height="73.30028328611898" width="5" style="fill: rgb(102, 102, 102);"><title>Rig3
690</title></rect><text x="-6" y="36.65014164305949" dy=".35em" text-anchor="end" style="font-size: 11px; font-family: Arial, Helvetica; pointer-events: none;">Rig3</text></g><g class="node" transform="translate(842,440.40368271954674)"><rect height="59.596317280453256" width="5" style="fill: rgb(102, 102, 102);"><title>Rig4
561</title></rect><text x="-6" y="29.798158640226628" dy=".35em" text-anchor="end" style="font-size: 11px; font-family: Arial, Helvetica; pointer-events: none;">Rig4</text></g><g class="node" transform="translate(842,96.68555240793201)"><rect height="79.35552407932012" width="5" style="fill: rgb(102, 102, 102);"><title>Rig5
747</title></rect><text x="-6" y="39.67776203966006" dy=".35em" text-anchor="end" style="font-size: 11px; font-family: Arial, Helvetica; pointer-events: none;">Rig5</text></g><g class="node" transform="translate(842,271.9971671388102)"><rect height="75.10623229461757" width="5" style="fill: rgb(102, 102, 102);"><title>Rig6
707</title></rect><text x="-6" y="37.553116147308785" dy=".35em" text-anchor="end" style="font-size: 11px; font-family: Arial, Helvetica; pointer-events: none;">Rig6</text></g><g class="node" transform="translate(421,186.04107648725213)"><rect height="75.95609065155807" width="5"><title>Vessel1
715</title></rect><text x="11" y="37.978045325779036" dy=".35em" text-anchor="start" style="font-size: 11px; font-family: Arial, Helvetica; pointer-events: none;">Vessel1</text></g><g class="node" transform="translate(421,0)"><rect height="86.68555240793201" width="5"><title>Vessel2
816</title></rect><text x="11" y="43.342776203966004" dy=".35em" text-anchor="start" style="font-size: 11px; font-family: Arial, Helvetica; pointer-events: none;">Vessel2</text></g><g class="node" transform="translate(421,357.10339943342774)"><rect height="73.30028328611898" width="5"><title>Vessel3
690</title></rect><text x="11" y="36.65014164305949" dy=".35em" text-anchor="start" style="font-size: 11px; font-family: Arial, Helvetica; pointer-events: none;">Vessel3</text></g><g class="node" transform="translate(421,440.40368271954674)"><rect height="59.596317280453256" width="5"><title>Vessel4
561</title></rect><text x="11" y="29.798158640226628" dy=".35em" text-anchor="start" style="font-size: 11px; font-family: Arial, Helvetica; pointer-events: none;">Vessel4</text></g><g class="node" transform="translate(421,96.68555240793201)"><rect height="79.35552407932012" width="5"><title>Vessel5
747</title></rect><text x="11" y="39.67776203966006" dy=".35em" text-anchor="start" style="font-size: 11px; font-family: Arial, Helvetica; pointer-events: none;">Vessel5</text></g><g class="node" transform="translate(421,271.9971671388102)"><rect height="75.10623229461757" width="5"><title>Vessel6
707</title></rect><text x="11" y="37.553116147308785" dy=".35em" text-anchor="start" style="font-size: 11px; font-family: Arial, Helvetica; pointer-events: none;">Vessel6</text></g></g></g></svg>