<svg xmlns="http://www.w3.org/2000/svg" width="805" height="600"><rect width="805" height="600" x="0" y="0" fill="#FFFFFF" id="backgorund"/><g transform="translate(10,10)" id="visualization"><g><rect x="0" y="5.684341886080802e-14" height="5.116279069767444" width="5" fill="black"><title>AI and Data Science: 1</title></rect><rect x="780" y="5.684341886080802e-14" height="5.116279069767444" width="5" fill="black"><title>CM1102: 1</title></rect><rect x="780" y="10.1162790697675" height="5.116279069767444" width="5" fill="black"><title>CM1110: 1</title></rect><rect x="780" y="20.232558139534945" height="5.116279069767444" width="5" fill="black"><title>CM1111: 1</title></rect><rect x="780" y="30.34883720930239" height="5.116279069767444" width="5" fill="black"><title>CM1108: 1</title></rect><rect x="780" y="40.46511627906983" height="5.116279069767444" width="5" fill="black"><title>CM1105: 1</title></rect><rect x="0" y="10.1162790697675" height="5.116279069767444" width="5" fill="black"><title>CM1102: 1</title></rect><rect x="780" y="50.581395348837276" height="5.116279069767444" width="5" fill="black"><title>CM2101: 1</title></rect><rect x="0" y="20.232558139534945" height="5.116279069767444" width="5" fill="black"><title>CM1110: 1</title></rect><rect x="0" y="30.34883720930239" height="5.116279069767415" width="5" fill="black"><title>CM1111: 1</title></rect><rect x="0" y="40.465116279069804" height="5.116279069767415" width="5" fill="black"><title>CM1108: 1</title></rect><rect x="0" y="50.58139534883722" height="5.116279069767415" width="5" fill="black"><title>CM1105: 1</title></rect><rect x="780" y="60.69767441860472" height="5.116279069767415" width="5" fill="black"><title>CM3111: 1</title></rect><rect x="780" y="70.81395348837214" height="5.116279069767415" width="5" fill="black"><title>CM3038: 1</title></rect><rect x="780" y="80.93023255813955" height="5.116279069767415" width="5" fill="black"><title>CM3104: 1</title></rect><rect x="780" y="91.04651162790697" height="5.116279069767415" width="5" fill="black"><title>CM3105: 1</title></rect><rect x="780" y="101.16279069767438" height="5.116279069767415" width="5" fill="black"><title>CM3130: 1</title></rect><rect x="780" y="111.2790697674418" height="5.116279069767415" width="5" fill="black"><title>CM3132: 1</title></rect><rect x="0" y="60.697674418604635" height="5.116279069767415" width="5" fill="black"><title>CM3104: 1</title></rect><rect x="0" y="70.81395348837205" height="5.116279069767415" width="5" fill="black"><title>CM3105: 1</title></rect><rect x="780" y="121.39534883720921" height="5.116279069767415" width="5" fill="black"><title>CM4110: 1</title></rect><rect x="0" y="80.93023255813947" height="5.116279069767415" width="5" fill="black"><title>CM3130: 1</title></rect><rect x="0" y="91.04651162790688" height="5.116279069767415" width="5" fill="black"><title>CM3132: 1</title></rect><rect x="780" y="131.51162790697663" height="10.232558139534888" width="5" fill="black"><title>CM1112: 2</title></rect><rect x="780" y="146.74418604651152" height="10.232558139534888" width="5" fill="black"><title>CM1113: 2</title></rect><rect x="0" y="101.1627906976743" height="10.232558139534888" width="5" fill="black"><title>Security: 2</title></rect><rect x="0" y="116.39534883720918" height="10.232558139534888" width="5" fill="black"><title>Multi Platform Development: 2</title></rect><rect x="0" y="131.62790697674407" height="10.232558139534888" width="5" fill="black"><title>CM2101: 2</title></rect><rect x="0" y="146.86046511627896" height="10.232558139534888" width="5" fill="black"><title>CM2112: 2</title></rect><rect x="780" y="161.9767441860464" height="10.232558139534888" width="5" fill="black"><title>CM4107: 2</title></rect><rect x="780" y="177.2093023255813" height="10.23255813953483" width="5" fill="black"><title>CM4126: 2</title></rect><rect x="780" y="192.44186046511612" height="10.23255813953483" width="5" fill="black"><title>CM4106: 2</title></rect><rect x="780" y="207.67441860465095" height="15.348837209302332" width="5" fill="black"><title>CM1109: 3</title></rect><rect x="0" y="162.09302325581385" height="15.348837209302332" width="5" fill="black"><title>Design: 3</title></rect><rect x="780" y="228.02325581395328" height="15.348837209302332" width="5" fill="black"><title>CM1114: 3</title></rect><rect x="0" y="182.44186046511618" height="15.348837209302303" width="5" fill="black"><title>CM3109: 3</title></rect><rect x="0" y="202.79069767441848" height="15.348837209302303" width="5" fill="black"><title>CM2110: 3</title></rect><rect x="780" y="248.37209302325562" height="15.34883720930236" width="5" fill="black"><title>CM4125: 3</title></rect><rect x="780" y="268.720930232558" height="15.34883720930236" width="5" fill="black"><title>CM4025: 3</title></rect><rect x="0" y="223.13953488372078" height="20.465116279069775" width="5" fill="black"><title>Problem Solving: 4</title></rect><rect x="0" y="248.60465116279056" height="20.465116279069775" width="5" fill="black"><title>Programing: 4</title></rect><rect x="0" y="274.06976744186034" height="20.465116279069775" width="5" fill="black"><title>CM2100: 4</title></rect><rect x="0" y="299.5348837209301" height="20.465116279069775" width="5" fill="black"><title>CM2104: 4</title></rect><rect x="0" y="324.9999999999999" height="20.465116279069775" width="5" fill="black"><title>CM3113: 4</title></rect><rect x="0" y="350.46511627906966" height="20.465116279069775" width="5" fill="black"><title>CM3111: 4</title></rect><rect x="0" y="375.93023255813944" height="20.465116279069775" width="5" fill="black"><title>CM3038: 4</title></rect><rect x="0" y="401.3953488372092" height="25.58139534883719" width="5" fill="black"><title>CM1112: 5</title></rect><rect x="0" y="431.9767441860464" height="25.58139534883719" width="5" fill="black"><title>CM1113: 5</title></rect><rect x="780" y="289.06976744186034" height="25.58139534883719" width="5" fill="black"><title>CM3113: 5</title></rect><rect x="780" y="319.6511627906975" height="30.697674418604663" width="5" fill="black"><title>CM3109: 6</title></rect><rect x="0" y="462.5581395348836" height="30.697674418604663" width="5" fill="black"><title>CM1114: 6</title></rect><rect x="780" y="355.3488372093022" height="30.697674418604663" width="5" fill="black"><title>CM2110: 6</title></rect><rect x="780" y="391.04651162790685" height="30.697674418604663" width="5" fill="black"><title>CM3110: 6</title></rect><rect x="0" y="498.25581395348826" height="35.81395348837208" width="5" fill="black"><title>CM1109: 7</title></rect><rect x="780" y="426.7441860465115" height="40.93023255813955" width="5" fill="black"><title>CM2100: 8</title></rect><rect x="0" y="539.0697674418603" height="40.93023255813955" width="5" fill="black"><title>CM3110: 8</title></rect><rect x="780" y="472.67441860465107" height="46.04651162790702" width="5" fill="black"><title>CM2104: 9</title></rect><rect x="780" y="523.7209302325581" height="56.27906976744191" width="5" fill="black"><title>CM4105: 11</title></rect></g><g fill="none" stroke-opacity="1"><g style="mix-blend-mode: multiply;"><path d="M5,241.04651162790682C392.5,241.04651162790682,392.5,429.3023255813952,780,429.3023255813952" stroke="#cccccc" stroke-width="5.116279069767442"/><title>Problem Solving → CM2100: 1</title></g><g style="mix-blend-mode: multiply;"><path d="M5,235.93023255813938C392.5,235.93023255813938,392.5,215.3488372093021,780,215.3488372093021" stroke="#cccccc" stroke-width="5.116279069767442"/><title>Problem Solving → CM1109: 1</title></g><g style="mix-blend-mode: multiply;"><path d="M5,225.6976744186045C392.5,225.6976744186045,392.5,134.06976744186034,780,134.06976744186034" stroke="#cccccc" stroke-width="5.116279069767442"/><title>Problem Solving → CM1112: 1</title></g><g style="mix-blend-mode: multiply;"><path d="M5,230.81395348837194C392.5,230.81395348837194,392.5,149.30232558139522,780,149.30232558139522" stroke="#cccccc" stroke-width="5.116279069767442"/><title>Problem Solving → CM1113: 1</title></g><g style="mix-blend-mode: multiply;"><path d="M5,2.558139534883778C392.5,2.558139534883778,392.5,2.558139534883778,780,2.558139534883778" stroke="#1f77b4" stroke-width="5.116279069767442"/><title>AI and Data Science → CM1102: 1</title></g><g style="mix-blend-mode: multiply;"><path d="M5,103.72093023255802C392.5,103.72093023255802,392.5,12.674418604651223,780,12.674418604651223" stroke="#cccccc" stroke-width="5.116279069767442"/><title>Security → CM1110: 1</title></g><g style="mix-blend-mode: multiply;"><path d="M5,108.83720930232546C392.5,108.83720930232546,392.5,22.790697674418666,780,22.790697674418666" stroke="#cccccc" stroke-width="5.116279069767442"/><title>Security → CM1111: 1</title></g><g style="mix-blend-mode: multiply;"><path d="M5,164.65116279069755C392.5,164.65116279069755,392.5,32.90697674418611,780,32.90697674418611" stroke="#cccccc" stroke-width="5.116279069767442"/><title>Design → CM1108: 1</title></g><g style="mix-blend-mode: multiply;"><path d="M5,174.88372093023244C392.5,174.88372093023244,392.5,235.69767441860444,780,235.69767441860444" stroke="#cccccc" stroke-width="5.116279069767442"/><title>Design → CM1114: 1</title></g><g style="mix-blend-mode: multiply;"><path d="M5,169.767441860465C392.5,169.767441860465,392.5,43.023255813953554,780,43.023255813953554" stroke="#cccccc" stroke-width="5.116279069767442"/><title>Design → CM1105: 1</title></g><g style="mix-blend-mode: multiply;"><path d="M5,261.39534883720916C392.5,261.39534883720916,392.5,220.46511627906955,780,220.46511627906955" stroke="#cccccc" stroke-width="5.116279069767442"/><title>Programing → CM1109: 1</title></g><g style="mix-blend-mode: multiply;"><path d="M5,251.16279069767427C392.5,251.16279069767427,392.5,139.18604651162778,780,139.18604651162778" stroke="#cccccc" stroke-width="5.116279069767442"/><title>Programing → CM1112: 1</title></g><g style="mix-blend-mode: multiply;"><path d="M5,256.27906976744174C392.5,256.27906976744174,392.5,154.41860465116267,780,154.41860465116267" stroke="#cccccc" stroke-width="5.116279069767442"/><title>Programing → CM1113: 1</title></g><g style="mix-blend-mode: multiply;"><path d="M5,266.51162790697657C392.5,266.51162790697657,392.5,240.81395348837188,780,240.81395348837188" stroke="#cccccc" stroke-width="5.116279069767442"/><title>Programing → CM1114: 1</title></g><g style="mix-blend-mode: multiply;"><path d="M5,118.9534883720929C392.5,118.9534883720929,392.5,210.23255813953466,780,210.23255813953466" stroke="#cccccc" stroke-width="5.116279069767442"/><title>Multi Platform Development → CM1109: 1</title></g><g style="mix-blend-mode: multiply;"><path d="M5,124.06976744186035C392.5,124.06976744186035,392.5,230.581395348837,780,230.581395348837" stroke="#cccccc" stroke-width="5.116279069767442"/><title>Multi Platform Development → CM1114: 1</title></g><g style="mix-blend-mode: multiply;"><path d="M5,518.720930232558C392.5,518.720930232558,392.5,462.55813953488354,780,462.55813953488354" stroke="#9467bd" stroke-width="10.232558139534884"/><title>CM1109 → CM2100: 2</title></g><g style="mix-blend-mode: multiply;"><path d="M5,416.74418604651146C392.5,416.74418604651146,392.5,436.97674418604635,780,436.97674418604635" stroke="#7f7f7f" stroke-width="10.232558139534884"/><title>CM1112 → CM2100: 2</title></g><g style="mix-blend-mode: multiply;"><path d="M5,447.32558139534865C392.5,447.32558139534865,392.5,447.20930232558123,780,447.20930232558123" stroke="#bcbd22" stroke-width="10.232558139534884"/><title>CM1113 → CM2100: 2</title></g><g style="mix-blend-mode: multiply;"><path d="M5,286.86046511627893C392.5,286.86046511627893,392.5,332.44186046511606,780,332.44186046511606" stroke="#cccccc" stroke-width="5.116279069767442"/><title>CM2100 → CM3109: 1</title></g><g style="mix-blend-mode: multiply;"><path d="M5,500.81395348837196C392.5,500.81395348837196,392.5,347.7906976744183,780,347.7906976744183" stroke="#9467bd" stroke-width="5.116279069767442"/><title>CM1109 → CM3109: 1</title></g><g style="mix-blend-mode: multiply;"><path d="M5,403.9534883720929C392.5,403.9534883720929,392.5,337.5581395348835,780,337.5581395348835" stroke="#7f7f7f" stroke-width="5.116279069767442"/><title>CM1112 → CM3109: 1</title></g><g style="mix-blend-mode: multiply;"><path d="M5,434.5348837209301C392.5,434.5348837209301,392.5,342.6744186046509,780,342.6744186046509" stroke="#bcbd22" stroke-width="5.116279069767442"/><title>CM1113 → CM3109: 1</title></g><g style="mix-blend-mode: multiply;"><path d="M5,12.674418604651223C392.5,12.674418604651223,392.5,53.139534883721,780,53.139534883721" stroke="#ff7f0e" stroke-width="5.116279069767442"/><title>CM1102 → CM2101: 1</title></g><g style="mix-blend-mode: multiply;"><path d="M5,22.790697674418666C392.5,22.790697674418666,392.5,322.20930232558123,780,322.20930232558123" stroke="#8c564b" stroke-width="5.116279069767442"/><title>CM1110 → CM3109: 1</title></g><g style="mix-blend-mode: multiply;"><path d="M5,32.90697674418611C392.5,32.90697674418611,392.5,327.32558139534865,780,327.32558139534865" stroke="#e377c2" stroke-width="5.116279069767442"/><title>CM1111 → CM3109: 1</title></g><g style="mix-blend-mode: multiply;"><path d="M5,43.023255813953526C392.5,43.023255813953526,392.5,475.2325581395348,780,475.2325581395348" stroke="#d62728" stroke-width="5.116279069767442"/><title>CM1108 → CM2104: 1</title></g><g style="mix-blend-mode: multiply;"><path d="M5,485.5813953488371C392.5,485.5813953488371,392.5,500.8139534883719,780,500.8139534883719" stroke="#17becf" stroke-width="15.348837209302326"/><title>CM1114 → CM2104: 3</title></g><g style="mix-blend-mode: multiply;"><path d="M5,53.13953488372094C392.5,53.13953488372094,392.5,480.3488372093022,780,480.3488372093022" stroke="#2ca02c" stroke-width="5.116279069767442"/><title>CM1105 → CM2104: 1</title></g><g style="mix-blend-mode: multiply;"><path d="M5,475.3488372093022C392.5,475.3488372093022,392.5,454.8837209302324,780,454.8837209302324" stroke="#17becf" stroke-width="5.116279069767442"/><title>CM1114 → CM2100: 1</title></g><g style="mix-blend-mode: multiply;"><path d="M5,528.9534883720928C392.5,528.9534883720928,392.5,513.6046511627904,780,513.6046511627904" stroke="#9467bd" stroke-width="10.232558139534884"/><title>CM1109 → CM2104: 2</title></g><g style="mix-blend-mode: multiply;"><path d="M5,424.41860465116264C392.5,424.41860465116264,392.5,485.4651162790696,780,485.4651162790696" stroke="#7f7f7f" stroke-width="5.116279069767442"/><title>CM1112 → CM2104: 1</title></g><g style="mix-blend-mode: multiply;"><path d="M5,454.99999999999983C392.5,454.99999999999983,392.5,490.581395348837,780,490.581395348837" stroke="#bcbd22" stroke-width="5.116279069767442"/><title>CM1113 → CM2104: 1</title></g><g style="mix-blend-mode: multiply;"><path d="M5,508.4883720930231C392.5,508.4883720930231,392.5,380.9302325581393,780,380.9302325581393" stroke="#9467bd" stroke-width="10.232558139534884"/><title>CM1109 → CM2110: 2</title></g><g style="mix-blend-mode: multiply;"><path d="M5,409.06976744186034C392.5,409.06976744186034,392.5,357.9069767441859,780,357.9069767441859" stroke="#7f7f7f" stroke-width="5.116279069767442"/><title>CM1112 → CM2110: 1</title></g><g style="mix-blend-mode: multiply;"><path d="M5,439.6511627906975C392.5,439.6511627906975,392.5,363.0232558139533,780,363.0232558139533" stroke="#bcbd22" stroke-width="5.116279069767442"/><title>CM1113 → CM2110: 1</title></g><g style="mix-blend-mode: multiply;"><path d="M5,467.674418604651C392.5,467.674418604651,392.5,370.69767441860444,780,370.69767441860444" stroke="#17becf" stroke-width="10.232558139534884"/><title>CM1114 → CM2110: 2</title></g><g style="mix-blend-mode: multiply;"><path d="M5,279.18604651162775C392.5,279.18604651162775,392.5,304.4186046511626,780,304.4186046511626" stroke="#cccccc" stroke-width="10.232558139534884"/><title>CM2100 → CM3113: 2</title></g><g style="mix-blend-mode: multiply;"><path d="M5,195.23255813953477C392.5,195.23255813953477,392.5,291.62790697674404,780,291.62790697674404" stroke="#cccccc" stroke-width="5.116279069767442"/><title>CM3109 → CM3113: 1</title></g><g style="mix-blend-mode: multiply;"><path d="M5,134.18604651162778C392.5,134.18604651162778,392.5,63.25581395348844,780,63.25581395348844" stroke="#cccccc" stroke-width="5.116279069767442"/><title>CM2101 → CM3111: 1</title></g><g style="mix-blend-mode: multiply;"><path d="M5,139.30232558139522C392.5,139.30232558139522,392.5,73.37209302325586,780,73.37209302325586" stroke="#cccccc" stroke-width="5.116279069767442"/><title>CM2101 → CM3038: 1</title></g><g style="mix-blend-mode: multiply;"><path d="M5,184.9999999999999C392.5,184.9999999999999,392.5,83.48837209302327,780,83.48837209302327" stroke="#cccccc" stroke-width="5.116279069767442"/><title>CM3109 → CM3104: 1</title></g><g style="mix-blend-mode: multiply;"><path d="M5,190.11627906976733C392.5,190.11627906976733,392.5,93.60465116279069,780,93.60465116279069" stroke="#cccccc" stroke-width="5.116279069767442"/><title>CM3109 → CM3105: 1</title></g><g style="mix-blend-mode: multiply;"><path d="M5,312.3255813953487C392.5,312.3255813953487,392.5,414.06976744186034,780,414.06976744186034" stroke="#cccccc" stroke-width="15.348837209302326"/><title>CM2104 → CM3110: 3</title></g><g style="mix-blend-mode: multiply;"><path d="M5,149.41860465116267C392.5,149.41860465116267,392.5,103.7209302325581,780,103.7209302325581" stroke="#cccccc" stroke-width="5.116279069767442"/><title>CM2112 → CM3130: 1</title></g><g style="mix-blend-mode: multiply;"><path d="M5,154.5348837209301C392.5,154.5348837209301,392.5,113.83720930232552,780,113.83720930232552" stroke="#cccccc" stroke-width="5.116279069767442"/><title>CM2112 → CM3132: 1</title></g><g style="mix-blend-mode: multiply;"><path d="M5,291.97674418604635C392.5,291.97674418604635,392.5,403.83720930232545,780,403.83720930232545" stroke="#cccccc" stroke-width="5.116279069767442"/><title>CM2100 → CM3110: 1</title></g><g style="mix-blend-mode: multiply;"><path d="M5,213.02325581395337C392.5,213.02325581395337,392.5,396.16279069767427,780,396.16279069767427" stroke="#cccccc" stroke-width="10.232558139534884"/><title>CM2110 → CM3110: 2</title></g><g style="mix-blend-mode: multiply;"><path d="M5,302.0930232558138C392.5,302.0930232558138,392.5,312.09302325581376,780,312.09302325581376" stroke="#cccccc" stroke-width="5.116279069767442"/><title>CM2104 → CM3113: 1</title></g><g style="mix-blend-mode: multiply;"><path d="M5,205.3488372093022C392.5,205.3488372093022,392.5,296.74418604651146,780,296.74418604651146" stroke="#cccccc" stroke-width="5.116279069767442"/><title>CM2110 → CM3113: 1</title></g><g style="mix-blend-mode: multiply;"><path d="M5,340.34883720930213C392.5,340.34883720930213,392.5,549.3023255813952,780,549.3023255813952" stroke="#cccccc" stroke-width="10.232558139534884"/><title>CM3113 → CM4105: 2</title></g><g style="mix-blend-mode: multiply;"><path d="M5,368.3720930232556C392.5,368.3720930232556,392.5,556.9767441860463,780,556.9767441860463" stroke="#cccccc" stroke-width="5.116279069767442"/><title>CM3111 → CM4105: 1</title></g><g style="mix-blend-mode: multiply;"><path d="M5,393.8372093023254C392.5,393.8372093023254,392.5,562.0930232558137,780,562.0930232558137" stroke="#cccccc" stroke-width="5.116279069767442"/><title>CM3038 → CM4105: 1</title></g><g style="mix-blend-mode: multiply;"><path d="M5,353.02325581395337C392.5,353.02325581395337,392.5,164.5348837209301,780,164.5348837209301" stroke="#cccccc" stroke-width="5.116279069767442"/><title>CM3111 → CM4107: 1</title></g><g style="mix-blend-mode: multiply;"><path d="M5,378.48837209302314C392.5,378.48837209302314,392.5,169.65116279069755,780,169.65116279069755" stroke="#cccccc" stroke-width="5.116279069767442"/><title>CM3038 → CM4107: 1</title></g><g style="mix-blend-mode: multiply;"><path d="M5,363.2558139534882C392.5,363.2558139534882,392.5,250.93023255813932,780,250.93023255813932" stroke="#cccccc" stroke-width="5.116279069767442"/><title>CM3111 → CM4125: 1</title></g><g style="mix-blend-mode: multiply;"><path d="M5,388.720930232558C392.5,388.720930232558,392.5,256.0465116279068,780,256.0465116279068" stroke="#cccccc" stroke-width="5.116279069767442"/><title>CM3038 → CM4125: 1</title></g><g style="mix-blend-mode: multiply;"><path d="M5,358.1395348837208C392.5,358.1395348837208,392.5,179.767441860465,780,179.767441860465" stroke="#cccccc" stroke-width="5.116279069767442"/><title>CM3111 → CM4126: 1</title></g><g style="mix-blend-mode: multiply;"><path d="M5,383.60465116279056C392.5,383.60465116279056,392.5,184.88372093023244,780,184.88372093023244" stroke="#cccccc" stroke-width="5.116279069767442"/><title>CM3038 → CM4126: 1</title></g><g style="mix-blend-mode: multiply;"><path d="M5,63.25581395348836C392.5,63.25581395348836,392.5,526.2790697674418,780,526.2790697674418" stroke="#cccccc" stroke-width="5.116279069767442"/><title>CM3104 → CM4105: 1</title></g><g style="mix-blend-mode: multiply;"><path d="M5,73.37209302325577C392.5,73.37209302325577,392.5,531.3953488372092,780,531.3953488372092" stroke="#cccccc" stroke-width="5.116279069767442"/><title>CM3105 → CM4105: 1</title></g><g style="mix-blend-mode: multiply;"><path d="M5,572.3255813953485C392.5,572.3255813953485,392.5,572.3255813953485,780,572.3255813953485" stroke="#cccccc" stroke-width="15.348837209302326"/><title>CM3110 → CM4105: 3</title></g><g style="mix-blend-mode: multiply;"><path d="M5,551.8604651162789C392.5,551.8604651162789,392.5,261.1627906976742,780,261.1627906976742" stroke="#cccccc" stroke-width="5.116279069767442"/><title>CM3110 → CM4125: 1</title></g><g style="mix-blend-mode: multiply;"><path d="M5,541.627906976744C392.5,541.627906976744,392.5,123.95348837209293,780,123.95348837209293" stroke="#cccccc" stroke-width="5.116279069767442"/><title>CM3110 → CM4110: 1</title></g><g style="mix-blend-mode: multiply;"><path d="M5,83.48837209302319C392.5,83.48837209302319,392.5,536.5116279069766,780,536.5116279069766" stroke="#cccccc" stroke-width="5.116279069767442"/><title>CM3130 → CM4105: 1</title></g><g style="mix-blend-mode: multiply;"><path d="M5,93.6046511627906C392.5,93.6046511627906,392.5,541.627906976744,780,541.627906976744" stroke="#cccccc" stroke-width="5.116279069767442"/><title>CM3132 → CM4105: 1</title></g><g style="mix-blend-mode: multiply;"><path d="M5,546.7441860465115C392.5,546.7441860465115,392.5,200.11627906976727,780,200.11627906976727" stroke="#cccccc" stroke-width="5.116279069767442"/><title>CM3110 → CM4106: 1</title></g><g style="mix-blend-mode: multiply;"><path d="M5,327.5581395348836C392.5,327.5581395348836,392.5,194.99999999999983,780,194.99999999999983" stroke="#cccccc" stroke-width="5.116279069767442"/><title>CM3113 → CM4106: 1</title></g><g style="mix-blend-mode: multiply;"><path d="M5,559.53488372093C392.5,559.53488372093,392.5,278.9534883720928,780,278.9534883720928" stroke="#cccccc" stroke-width="10.232558139534884"/><title>CM3110 → CM4025: 2</title></g><g style="mix-blend-mode: multiply;"><path d="M5,332.674418604651C392.5,332.674418604651,392.5,271.2790697674417,780,271.2790697674417" stroke="#cccccc" stroke-width="5.116279069767442"/><title>CM3113 → CM4025: 1</title></g></g><g><text x="9" y="2.5581395348837788" text-anchor="start"><tspan alignment-baseline="middle" x="9" style="font-family: Arial, sans-serif; font-size: 10px; fill: black; font-weight: bold;">AI and Data Science</tspan></text><text x="776" y="2.5581395348837788" text-anchor="end"><tspan alignment-baseline="middle" x="776" style="font-family: Arial, sans-serif; font-size: 10px; fill: black; font-weight: bold;">CM1102</tspan></text><text x="776" y="12.674418604651223" text-anchor="end"><tspan alignment-baseline="middle" x="776" style="font-family: Arial, sans-serif; font-size: 10px; fill: black; font-weight: bold;">CM1110</tspan></text><text x="776" y="22.790697674418666" text-anchor="end"><tspan alignment-baseline="middle" x="776" style="font-family: Arial, sans-serif; font-size: 10px; fill: black; font-weight: bold;">CM1111</tspan></text><text x="776" y="32.90697674418611" text-anchor="end"><tspan alignment-baseline="middle" x="776" style="font-family: Arial, sans-serif; font-size: 10px; fill: black; font-weight: bold;">CM1108</tspan></text><text x="776" y="43.023255813953554" text-anchor="end"><tspan alignment-baseline="middle" x="776" style="font-family: Arial, sans-serif; font-size: 10px; fill: black; font-weight: bold;">CM1105</tspan></text><text x="9" y="12.674418604651223" text-anchor="start"><tspan alignment-baseline="middle" x="9" style="font-family: Arial, sans-serif; font-size: 10px; fill: black; font-weight: bold;">CM1102</tspan></text><text x="776" y="53.139534883721" text-anchor="end"><tspan alignment-baseline="middle" x="776" style="font-family: Arial, sans-serif; font-size: 10px; fill: black; font-weight: bold;">CM2101</tspan></text><text x="9" y="22.790697674418666" text-anchor="start"><tspan alignment-baseline="middle" x="9" style="font-family: Arial, sans-serif; font-size: 10px; fill: black; font-weight: bold;">CM1110</tspan></text><text x="9" y="32.906976744186096" text-anchor="start"><tspan alignment-baseline="middle" x="9" style="font-family: Arial, sans-serif; font-size: 10px; fill: black; font-weight: bold;">CM1111</tspan></text><text x="9" y="43.02325581395351" text-anchor="start"><tspan alignment-baseline="middle" x="9" style="font-family: Arial, sans-serif; font-size: 10px; fill: black; font-weight: bold;">CM1108</tspan></text><text x="9" y="53.13953488372093" text-anchor="start"><tspan alignment-baseline="middle" x="9" style="font-family: Arial, sans-serif; font-size: 10px; fill: black; font-weight: bold;">CM1105</tspan></text><text x="776" y="63.25581395348843" text-anchor="end"><tspan alignment-baseline="middle" x="776" style="font-family: Arial, sans-serif; font-size: 10px; fill: black; font-weight: bold;">CM3111</tspan></text><text x="776" y="73.37209302325584" text-anchor="end"><tspan alignment-baseline="middle" x="776" style="font-family: Arial, sans-serif; font-size: 10px; fill: black; font-weight: bold;">CM3038</tspan></text><text x="776" y="83.48837209302326" text-anchor="end"><tspan alignment-baseline="middle" x="776" style="font-family: Arial, sans-serif; font-size: 10px; fill: black; font-weight: bold;">CM3104</tspan></text><text x="776" y="93.60465116279067" text-anchor="end"><tspan alignment-baseline="middle" x="776" style="font-family: Arial, sans-serif; font-size: 10px; fill: black; font-weight: bold;">CM3105</tspan></text><text x="776" y="103.72093023255809" text-anchor="end"><tspan alignment-baseline="middle" x="776" style="font-family: Arial, sans-serif; font-size: 10px; fill: black; font-weight: bold;">CM3130</tspan></text><text x="776" y="113.8372093023255" text-anchor="end"><tspan alignment-baseline="middle" x="776" style="font-family: Arial, sans-serif; font-size: 10px; fill: black; font-weight: bold;">CM3132</tspan></text><text x="9" y="63.25581395348834" text-anchor="start"><tspan alignment-baseline="middle" x="9" style="font-family: Arial, sans-serif; font-size: 10px; fill: black; font-weight: bold;">CM3104</tspan></text><text x="9" y="73.37209302325576" text-anchor="start"><tspan alignment-baseline="middle" x="9" style="font-family: Arial, sans-serif; font-size: 10px; fill: black; font-weight: bold;">CM3105</tspan></text><text x="776" y="123.95348837209292" text-anchor="end"><tspan alignment-baseline="middle" x="776" style="font-family: Arial, sans-serif; font-size: 10px; fill: black; font-weight: bold;">CM4110</tspan></text><text x="9" y="83.48837209302317" text-anchor="start"><tspan alignment-baseline="middle" x="9" style="font-family: Arial, sans-serif; font-size: 10px; fill: black; font-weight: bold;">CM3130</tspan></text><text x="9" y="93.60465116279059" text-anchor="start"><tspan alignment-baseline="middle" x="9" style="font-family: Arial, sans-serif; font-size: 10px; fill: black; font-weight: bold;">CM3132</tspan></text><text x="776" y="136.62790697674407" text-anchor="end"><tspan alignment-baseline="middle" x="776" style="font-family: Arial, sans-serif; font-size: 10px; fill: black; font-weight: bold;">CM1112</tspan></text><text x="776" y="151.86046511627896" text-anchor="end"><tspan alignment-baseline="middle" x="776" style="font-family: Arial, sans-serif; font-size: 10px; fill: black; font-weight: bold;">CM1113</tspan></text><text x="9" y="106.27906976744174" text-anchor="start"><tspan alignment-baseline="middle" x="9" style="font-family: Arial, sans-serif; font-size: 10px; fill: black; font-weight: bold;">Security</tspan></text><text x="9" y="121.51162790697663" text-anchor="start"><tspan alignment-baseline="middle" x="9" style="font-family: Arial, sans-serif; font-size: 10px; fill: black; font-weight: bold;">Multi Platform Development</tspan></text><text x="9" y="136.74418604651152" text-anchor="start"><tspan alignment-baseline="middle" x="9" style="font-family: Arial, sans-serif; font-size: 10px; fill: black; font-weight: bold;">CM2101</tspan></text><text x="9" y="151.9767441860464" text-anchor="start"><tspan alignment-baseline="middle" x="9" style="font-family: Arial, sans-serif; font-size: 10px; fill: black; font-weight: bold;">CM2112</tspan></text><text x="776" y="167.09302325581385" text-anchor="end"><tspan alignment-baseline="middle" x="776" style="font-family: Arial, sans-serif; font-size: 10px; fill: black; font-weight: bold;">CM4107</tspan></text><text x="776" y="182.3255813953487" text-anchor="end"><tspan alignment-baseline="middle" x="776" style="font-family: Arial, sans-serif; font-size: 10px; fill: black; font-weight: bold;">CM4126</tspan></text><text x="776" y="197.55813953488354" text-anchor="end"><tspan alignment-baseline="middle" x="776" style="font-family: Arial, sans-serif; font-size: 10px; fill: black; font-weight: bold;">CM4106</tspan></text><text x="776" y="215.34883720930213" text-anchor="end"><tspan alignment-baseline="middle" x="776" style="font-family: Arial, sans-serif; font-size: 10px; fill: black; font-weight: bold;">CM1109</tspan></text><text x="9" y="169.767441860465" text-anchor="start"><tspan alignment-baseline="middle" x="9" style="font-family: Arial, sans-serif; font-size: 10px; fill: black; font-weight: bold;">Design</tspan></text><text x="776" y="235.69767441860444" text-anchor="end"><tspan alignment-baseline="middle" x="776" style="font-family: Arial, sans-serif; font-size: 10px; fill: black; font-weight: bold;">CM1114</tspan></text><text x="9" y="190.11627906976733" text-anchor="start"><tspan alignment-baseline="middle" x="9" style="font-family: Arial, sans-serif; font-size: 10px; fill: black; font-weight: bold;">CM3109</tspan></text><text x="9" y="210.46511627906963" text-anchor="start"><tspan alignment-baseline="middle" x="9" style="font-family: Arial, sans-serif; font-size: 10px; fill: black; font-weight: bold;">CM2110</tspan></text><text x="776" y="256.0465116279068" text-anchor="end"><tspan alignment-baseline="middle" x="776" style="font-family: Arial, sans-serif; font-size: 10px; fill: black; font-weight: bold;">CM4125</tspan></text><text x="776" y="276.39534883720916" text-anchor="end"><tspan alignment-baseline="middle" x="776" style="font-family: Arial, sans-serif; font-size: 10px; fill: black; font-weight: bold;">CM4025</tspan></text><text x="9" y="233.37209302325567" text-anchor="start"><tspan alignment-baseline="middle" x="9" style="font-family: Arial, sans-serif; font-size: 10px; fill: black; font-weight: bold;">Problem Solving</tspan></text><text x="9" y="258.83720930232545" text-anchor="start"><tspan alignment-baseline="middle" x="9" style="font-family: Arial, sans-serif; font-size: 10px; fill: black; font-weight: bold;">Programing</tspan></text><text x="9" y="284.3023255813952" text-anchor="start"><tspan alignment-baseline="middle" x="9" style="font-family: Arial, sans-serif; font-size: 10px; fill: black; font-weight: bold;">CM2100</tspan></text><text x="9" y="309.767441860465" text-anchor="start"><tspan alignment-baseline="middle" x="9" style="font-family: Arial, sans-serif; font-size: 10px; fill: black; font-weight: bold;">CM2104</tspan></text><text x="9" y="335.2325581395348" text-anchor="start"><tspan alignment-baseline="middle" x="9" style="font-family: Arial, sans-serif; font-size: 10px; fill: black; font-weight: bold;">CM3113</tspan></text><text x="9" y="360.69767441860455" text-anchor="start"><tspan alignment-baseline="middle" x="9" style="font-family: Arial, sans-serif; font-size: 10px; fill: black; font-weight: bold;">CM3111</tspan></text><text x="9" y="386.1627906976743" text-anchor="start"><tspan alignment-baseline="middle" x="9" style="font-family: Arial, sans-serif; font-size: 10px; fill: black; font-weight: bold;">CM3038</tspan></text><text x="9" y="414.1860465116278" text-anchor="start"><tspan alignment-baseline="middle" x="9" style="font-family: Arial, sans-serif; font-size: 10px; fill: black; font-weight: bold;">CM1112</tspan></text><text x="9" y="444.767441860465" text-anchor="start"><tspan alignment-baseline="middle" x="9" style="font-family: Arial, sans-serif; font-size: 10px; fill: black; font-weight: bold;">CM1113</tspan></text><text x="776" y="301.86046511627893" text-anchor="end"><tspan alignment-baseline="middle" x="776" style="font-family: Arial, sans-serif; font-size: 10px; fill: black; font-weight: bold;">CM3113</tspan></text><text x="776" y="334.9999999999999" text-anchor="end"><tspan alignment-baseline="middle" x="776" style="font-family: Arial, sans-serif; font-size: 10px; fill: black; font-weight: bold;">CM3109</tspan></text><text x="9" y="477.90697674418595" text-anchor="start"><tspan alignment-baseline="middle" x="9" style="font-family: Arial, sans-serif; font-size: 10px; fill: black; font-weight: bold;">CM1114</tspan></text><text x="776" y="370.6976744186045" text-anchor="end"><tspan alignment-baseline="middle" x="776" style="font-family: Arial, sans-serif; font-size: 10px; fill: black; font-weight: bold;">CM2110</tspan></text><text x="776" y="406.3953488372092" text-anchor="end"><tspan alignment-baseline="middle" x="776" style="font-family: Arial, sans-serif; font-size: 10px; fill: black; font-weight: bold;">CM3110</tspan></text><text x="9" y="516.1627906976743" text-anchor="start"><tspan alignment-baseline="middle" x="9" style="font-family: Arial, sans-serif; font-size: 10px; fill: black; font-weight: bold;">CM1109</tspan></text><text x="776" y="447.2093023255813" text-anchor="end"><tspan alignment-baseline="middle" x="776" style="font-family: Arial, sans-serif; font-size: 10px; fill: black; font-weight: bold;">CM2100</tspan></text><text x="9" y="559.5348837209301" text-anchor="start"><tspan alignment-baseline="middle" x="9" style="font-family: Arial, sans-serif; font-size: 10px; fill: black; font-weight: bold;">CM3110</tspan></text><text x="776" y="495.6976744186046" text-anchor="end"><tspan alignment-baseline="middle" x="776" style="font-family: Arial, sans-serif; font-size: 10px; fill: black; font-weight: bold;">CM2104</tspan></text><text x="776" y="551.8604651162791" text-anchor="end"><tspan alignment-baseline="middle" x="776" style="font-family: Arial, sans-serif; font-size: 10px; fill: black; font-weight: bold;">CM4105</tspan></text></g><g><text x="2.5" y="-3.999999999999943" text-anchor="middle" style="font-family: Arial, sans-serif; font-size: 12px; fill: rgb(123, 123, 123); font-weight: bold;">source</text><text x="782.5" y="-3.999999999999943" text-anchor="middle" style="font-family: Arial, sans-serif; font-size: 12px; fill: rgb(123, 123, 123); font-weight: bold;">target</text></g></g></svg>