<svg xmlns="http://www.w3.org/2000/svg" width="805" height="600"><rect width="805" height="600" x="0" y="0" fill="#FFFFFF" id="backgorund"/><g transform="translate(10,10)" id="viz"><g><rect class="node" x="0" y="2.0571335136946516" height="70.66666666666663" width="5" fill="black"><title>Problem Solving: 4</title></rect><rect class="node" x="312" y="0" height="141.3333333333334" width="5" fill="black"><title>CM2100: 8</title></rect><rect class="node" x="156" y="0" height="123.66666666666671" width="5" fill="black"><title>CM1109: 7</title></rect><rect class="node" x="156" y="222.00000000000006" height="88.33333333333331" width="5" fill="black"><title>CM1112: 5</title></rect><rect class="node" x="156" y="128.66666666666669" height="88.33333333333337" width="5" fill="black"><title>CM1113: 5</title></rect><rect class="node" x="0" y="552.8098538183117" height="17.666666666666515" width="5" fill="black"><title>AI and Data Science: 1</title></rect><rect class="node" x="156" y="562.3333333333334" height="17.66666666666663" width="5" fill="black"><title>CM1102: 1</title></rect><rect class="node" x="0" y="471.47613422803596" height="35.33333333333337" width="5" fill="black"><title>Security: 2</title></rect><rect class="node" x="156" y="471.66666666666674" height="17.666666666666742" width="5" fill="black"><title>CM1110: 1</title></rect><rect class="node" x="156" y="494.3333333333335" height="17.66666666666663" width="5" fill="black"><title>CM1111: 1</title></rect><rect class="node" x="0" y="413.476134228036" height="52.99999999999994" width="5" fill="black"><title>Design: 3</title></rect><rect class="node" x="156" y="426.33333333333337" height="17.666666666666742" width="5" fill="black"><title>CM1108: 1</title></rect><rect class="node" x="156" y="315.33333333333337" height="106" width="5" fill="black"><title>CM1114: 6</title></rect><rect class="node" x="156" y="449.0000000000001" height="17.66666666666663" width="5" fill="black"><title>CM1105: 1</title></rect><rect class="node" x="0" y="77.72380018036128" height="70.66666666666666" width="5" fill="black"><title>Programing: 4</title></rect><rect class="node" x="0" y="153.39046684702794" height="35.33333333333323" width="5" fill="black"><title>Multi Platform Development: 2</title></rect><rect class="node" x="468" y="211.04097946092975" height="106.00000000000011" width="5" fill="black"><title>CM3109: 6</title></rect><rect class="node" x="312" y="544.6666666666666" height="35.33333333333337" width="5" fill="black"><title>CM2101: 2</title></rect><rect class="node" x="312" y="146.3333333333334" height="158.99999999999997" width="5" fill="black"><title>CM2104: 9</title></rect><rect class="node" x="312" y="310.33333333333337" height="105.99999999999989" width="5" fill="black"><title>CM2110: 6</title></rect><rect class="node" x="624" y="24.40178126530425" height="88.33333333333339" width="5" fill="black"><title>CM3113: 5</title></rect><rect class="node" x="468" y="433.66666666666663" height="70.66666666666674" width="5" fill="black"><title>CM3111: 4</title></rect><rect class="node" x="468" y="509.33333333333337" height="70.66666666666663" width="5" fill="black"><title>CM3038: 4</title></rect><rect class="node" x="624" y="227.65543567092527" height="17.666666666666742" width="5" fill="black"><title>CM3104: 1</title></rect><rect class="node" x="624" y="250.32210233759193" height="17.666666666666714" width="5" fill="black"><title>CM3105: 1</title></rect><rect class="node" x="468" y="64.7076461275962" height="141.33333333333354" width="5" fill="black"><title>CM3110: 8</title></rect><rect class="node" x="0" y="511.80946756136933" height="35.3333333333332" width="5" fill="black"><title>CM2112: 2</title></rect><rect class="node" x="156" y="539.6666666666667" height="17.66666666666663" width="5" fill="black"><title>CM3130: 1</title></rect><rect class="node" x="156" y="517.0000000000001" height="17.66666666666663" width="5" fill="black"><title>CM3132: 1</title></rect><rect class="node" x="780" y="239.1217492145837" height="194.33333333333337" width="5" fill="black"><title>CM4105: 11</title></rect><rect class="node" x="624" y="497.42317302664964" height="35.333333333333314" width="5" fill="black"><title>CM4107: 2</title></rect><rect class="node" x="624" y="370.082649289224" height="53" width="5" fill="black"><title>CM4125: 3</title></rect><rect class="node" x="624" y="537.756506359983" height="35.33333333333326" width="5" fill="black"><title>CM4126: 2</title></rect><rect class="node" x="624" y="117.73511459863764" height="17.666666666666714" width="5" fill="black"><title>CM4110: 1</title></rect><rect class="node" x="780" y="0" height="35.33333333333343" width="5" fill="black"><title>CM4106: 2</title></rect><rect class="node" x="780" y="40.33333333333343" height="52.999999999999986" width="5" fill="black"><title>CM4025: 3</title></rect></g><g fill="none"><g style="mix-blend-mode: multiply;"><path d="M5,28.55713351369465C158.5,28.55713351369465,158.5,8.833333333333334,312,8.833333333333334" stroke="#cccccc" stroke-width="17.666666666666668" class="1990802409"/><title>Problem Solving → CM2100: 1</title></g><g style="mix-blend-mode: multiply;"><path d="M5,10.890466847027986C80.5,10.890466847027986,80.5,8.833333333333334,156,8.833333333333334" stroke="#cccccc" stroke-width="17.666666666666668" class="1990772627"/><title>Problem Solving → CM1109: 1</title></g><g style="mix-blend-mode: multiply;"><path d="M5,63.89046684702799C80.5,63.89046684702799,80.5,230.8333333333334,156,230.8333333333334" stroke="#cccccc" stroke-width="17.666666666666668" class="1990772651"/><title>Problem Solving → CM1112: 1</title></g><g style="mix-blend-mode: multiply;"><path d="M5,46.22380018036132C80.5,46.22380018036132,80.5,137.50000000000003,156,137.50000000000003" stroke="#cccccc" stroke-width="17.666666666666668" class="1990772652"/><title>Problem Solving → CM1113: 1</title></g><g style="mix-blend-mode: multiply;"><path d="M5,561.6431871516451C80.5,561.6431871516451,80.5,571.1666666666667,156,571.1666666666667" stroke="#1f77b4" stroke-width="17.666666666666668" class="1990772620"/><title>AI and Data Science → CM1102: 1</title></g><g style="mix-blend-mode: multiply;"><path d="M5,480.3094675613693C80.5,480.3094675613693,80.5,480.50000000000006,156,480.50000000000006" stroke="#cccccc" stroke-width="17.666666666666668" class="1990772649"/><title>Security → CM1110: 1</title></g><g style="mix-blend-mode: multiply;"><path d="M5,497.97613422803596C80.5,497.97613422803596,80.5,503.1666666666668,156,503.1666666666668" stroke="#cccccc" stroke-width="17.666666666666668" class="1990772650"/><title>Security → CM1111: 1</title></g><g style="mix-blend-mode: multiply;"><path d="M5,439.976134228036C80.5,439.976134228036,80.5,435.1666666666667,156,435.1666666666667" stroke="#cccccc" stroke-width="17.666666666666668" class="1990772626"/><title>Design → CM1108: 1</title></g><g style="mix-blend-mode: multiply;"><path d="M5,422.30946756136933C80.5,422.30946756136933,80.5,359.50000000000006,156,359.50000000000006" stroke="#cccccc" stroke-width="17.666666666666668" class="1990772653"/><title>Design → CM1114: 1</title></g><g style="mix-blend-mode: multiply;"><path d="M5,457.6428008947027C80.5,457.6428008947027,80.5,457.8333333333334,156,457.8333333333334" stroke="#cccccc" stroke-width="17.666666666666668" class="1990772623"/><title>Design → CM1105: 1</title></g><g style="mix-blend-mode: multiply;"><path d="M5,86.55713351369461C80.5,86.55713351369461,80.5,26.5,156,26.5" stroke="#cccccc" stroke-width="17.666666666666668" class="1990772627"/><title>Programing → CM1109: 1</title></g><g style="mix-blend-mode: multiply;"><path d="M5,121.89046684702795C80.5,121.89046684702795,80.5,248.50000000000006,156,248.50000000000006" stroke="#cccccc" stroke-width="17.666666666666668" class="1990772651"/><title>Programing → CM1112: 1</title></g><g style="mix-blend-mode: multiply;"><path d="M5,104.22380018036128C80.5,104.22380018036128,80.5,155.16666666666669,156,155.16666666666669" stroke="#cccccc" stroke-width="17.666666666666668" class="1990772652"/><title>Programing → CM1113: 1</title></g><g style="mix-blend-mode: multiply;"><path d="M5,139.55713351369462C80.5,139.55713351369462,80.5,324.1666666666667,156,324.1666666666667" stroke="#cccccc" stroke-width="17.666666666666668" class="1990772653"/><title>Programing → CM1114: 1</title></g><g style="mix-blend-mode: multiply;"><path d="M5,162.22380018036128C80.5,162.22380018036128,80.5,44.16666666666667,156,44.16666666666667" stroke="#cccccc" stroke-width="17.666666666666668" class="1990772627"/><title>Multi Platform Development → CM1109: 1</title></g><g style="mix-blend-mode: multiply;"><path d="M5,179.89046684702794C80.5,179.89046684702794,80.5,341.83333333333337,156,341.83333333333337" stroke="#cccccc" stroke-width="17.666666666666668" class="1990772653"/><title>Multi Platform Development → CM1114: 1</title></g><g style="mix-blend-mode: multiply;"><path d="M161,17.666666666666668C236.5,17.666666666666668,236.5,35.333333333333336,312,35.333333333333336" stroke="#9467bd" stroke-width="35.333333333333336" class="1990802409"/><title>CM1109 → CM2100: 2</title></g><g style="mix-blend-mode: multiply;"><path d="M161,239.6666666666667C236.5,239.6666666666667,236.5,106.00000000000001,312,106.00000000000001" stroke="#7f7f7f" stroke-width="35.333333333333336" class="1990802409"/><title>CM1112 → CM2100: 2</title></g><g style="mix-blend-mode: multiply;"><path d="M161,146.33333333333334C236.5,146.33333333333334,236.5,70.66666666666667,312,70.66666666666667" stroke="#bcbd22" stroke-width="35.333333333333336" class="1990802409"/><title>CM1113 → CM2100: 2</title></g><g style="mix-blend-mode: multiply;"><path d="M317,61.833333333333336C392.5,61.833333333333336,392.5,237.54097946092975,468,237.54097946092975" stroke="#cccccc" stroke-width="17.666666666666668" class="1990832209"/><title>CM2100 → CM3109: 1</title></g><g style="mix-blend-mode: multiply;"><path d="M161,79.5C314.5,79.5,314.5,219.8743127942631,468,219.8743127942631" stroke="#9467bd" stroke-width="17.666666666666668" class="1990832209"/><title>CM1109 → CM3109: 1</title></g><g style="mix-blend-mode: multiply;"><path d="M161,283.83333333333337C314.5,283.83333333333337,314.5,272.87431279426306,468,272.87431279426306" stroke="#7f7f7f" stroke-width="17.666666666666668" class="1990832209"/><title>CM1112 → CM3109: 1</title></g><g style="mix-blend-mode: multiply;"><path d="M161,190.50000000000003C314.5,190.50000000000003,314.5,255.2076461275964,468,255.2076461275964" stroke="#bcbd22" stroke-width="17.666666666666668" class="1990832209"/><title>CM1113 → CM3109: 1</title></g><g style="mix-blend-mode: multiply;"><path d="M161,571.1666666666667C236.5,571.1666666666667,236.5,553.5,312,553.5" stroke="#ff7f0e" stroke-width="17.666666666666668" class="1990802410"/><title>CM1102 → CM2101: 1</title></g><g style="mix-blend-mode: multiply;"><path d="M161,480.50000000000006C314.5,480.50000000000006,314.5,290.54097946092975,468,290.54097946092975" stroke="#8c564b" stroke-width="17.666666666666668" class="1990832209"/><title>CM1110 → CM3109: 1</title></g><g style="mix-blend-mode: multiply;"><path d="M161,503.1666666666668C314.5,503.1666666666668,314.5,308.20764612759643,468,308.20764612759643" stroke="#e377c2" stroke-width="17.666666666666668" class="1990832209"/><title>CM1111 → CM3109: 1</title></g><g style="mix-blend-mode: multiply;"><path d="M161,435.1666666666667C236.5,435.1666666666667,236.5,278.83333333333337,312,278.83333333333337" stroke="#d62728" stroke-width="17.666666666666668" class="1990802413"/><title>CM1108 → CM2104: 1</title></g><g style="mix-blend-mode: multiply;"><path d="M161,359.50000000000006C236.5,359.50000000000006,236.5,243.50000000000006,312,243.50000000000006" stroke="#17becf" stroke-width="53" class="1990802413"/><title>CM1114 → CM2104: 3</title></g><g style="mix-blend-mode: multiply;"><path d="M161,457.8333333333334C236.5,457.8333333333334,236.5,296.50000000000006,312,296.50000000000006" stroke="#2ca02c" stroke-width="17.666666666666668" class="1990802413"/><title>CM1105 → CM2104: 1</title></g><g style="mix-blend-mode: multiply;"><path d="M161,324.1666666666667C236.5,324.1666666666667,236.5,132.50000000000003,312,132.50000000000003" stroke="#17becf" stroke-width="17.666666666666668" class="1990802409"/><title>CM1114 → CM2100: 1</title></g><g style="mix-blend-mode: multiply;"><path d="M161,53C236.5,53,236.5,164.00000000000006,312,164.00000000000006" stroke="#9467bd" stroke-width="35.333333333333336" class="1990802413"/><title>CM1109 → CM2104: 2</title></g><g style="mix-blend-mode: multiply;"><path d="M161,266.1666666666667C236.5,266.1666666666667,236.5,208.16666666666674,312,208.16666666666674" stroke="#7f7f7f" stroke-width="17.666666666666668" class="1990802413"/><title>CM1112 → CM2104: 1</title></g><g style="mix-blend-mode: multiply;"><path d="M161,172.83333333333337C236.5,172.83333333333337,236.5,190.50000000000009,312,190.50000000000009" stroke="#bcbd22" stroke-width="17.666666666666668" class="1990802413"/><title>CM1113 → CM2104: 1</title></g><g style="mix-blend-mode: multiply;"><path d="M161,106.00000000000001C236.5,106.00000000000001,236.5,328.00000000000006,312,328.00000000000006" stroke="#9467bd" stroke-width="35.333333333333336" class="1990802440"/><title>CM1109 → CM2110: 2</title></g><g style="mix-blend-mode: multiply;"><path d="M161,301.50000000000006C236.5,301.50000000000006,236.5,372.1666666666667,312,372.1666666666667" stroke="#7f7f7f" stroke-width="17.666666666666668" class="1990802440"/><title>CM1112 → CM2110: 1</title></g><g style="mix-blend-mode: multiply;"><path d="M161,208.16666666666669C236.5,208.16666666666669,236.5,354.5,312,354.5" stroke="#bcbd22" stroke-width="17.666666666666668" class="1990802440"/><title>CM1113 → CM2110: 1</title></g><g style="mix-blend-mode: multiply;"><path d="M161,403.66666666666674C236.5,403.66666666666674,236.5,398.66666666666674,312,398.66666666666674" stroke="#17becf" stroke-width="35.333333333333336" class="1990802440"/><title>CM1114 → CM2110: 2</title></g><g style="mix-blend-mode: multiply;"><path d="M317,35.333333333333336C470.5,35.333333333333336,470.5,42.06844793197092,624,42.06844793197092" stroke="#cccccc" stroke-width="35.333333333333336" class="1990832234"/><title>CM2100 → CM3113: 2</title></g><g style="mix-blend-mode: multiply;"><path d="M473,219.8743127942631C548.5,219.8743127942631,548.5,86.23511459863758,624,86.23511459863758" stroke="#cccccc" stroke-width="17.666666666666668" class="1990832234"/><title>CM3109 → CM3113: 1</title></g><g style="mix-blend-mode: multiply;"><path d="M317,553.5C392.5,553.5,392.5,442.49999999999994,468,442.49999999999994" stroke="#cccccc" stroke-width="17.666666666666668" class="1990832232"/><title>CM2101 → CM3111: 1</title></g><g style="mix-blend-mode: multiply;"><path d="M317,571.1666666666666C392.5,571.1666666666666,392.5,518.1666666666667,468,518.1666666666667" stroke="#cccccc" stroke-width="17.666666666666668" class="1990831340"/><title>CM2101 → CM3038: 1</title></g><g style="mix-blend-mode: multiply;"><path d="M473,237.54097946092975C548.5,237.54097946092975,548.5,236.48876900425861,624,236.48876900425861" stroke="#cccccc" stroke-width="17.666666666666668" class="1990832204"/><title>CM3109 → CM3104: 1</title></g><g style="mix-blend-mode: multiply;"><path d="M473,255.2076461275964C548.5,255.2076461275964,548.5,259.15543567092527,624,259.15543567092527" stroke="#cccccc" stroke-width="17.666666666666668" class="1990832205"/><title>CM3109 → CM3105: 1</title></g><g style="mix-blend-mode: multiply;"><path d="M317,172.8333333333334C392.5,172.8333333333334,392.5,108.87431279426288,468,108.87431279426288" stroke="#cccccc" stroke-width="53" class="1990832231"/><title>CM2104 → CM3110: 3</title></g><g style="mix-blend-mode: multiply;"><path d="M5,538.3094675613694C80.5,538.3094675613694,80.5,548.5000000000001,156,548.5000000000001" stroke="#cccccc" stroke-width="17.666666666666668" class="1990832293"/><title>CM2112 → CM3130: 1</title></g><g style="mix-blend-mode: multiply;"><path d="M5,520.6428008947026C80.5,520.6428008947026,80.5,525.8333333333335,156,525.8333333333335" stroke="#cccccc" stroke-width="17.666666666666668" class="1990832295"/><title>CM2112 → CM3132: 1</title></g><g style="mix-blend-mode: multiply;"><path d="M317,8.833333333333334C392.5,8.833333333333334,392.5,73.54097946092953,468,73.54097946092953" stroke="#cccccc" stroke-width="17.666666666666668" class="1990832231"/><title>CM2100 → CM3110: 1</title></g><g style="mix-blend-mode: multiply;"><path d="M317,328.00000000000006C392.5,328.00000000000006,392.5,153.04097946092955,468,153.04097946092955" stroke="#cccccc" stroke-width="35.333333333333336" class="1990832231"/><title>CM2110 → CM3110: 2</title></g><g style="mix-blend-mode: multiply;"><path d="M317,208.16666666666674C470.5,208.16666666666674,470.5,68.56844793197092,624,68.56844793197092" stroke="#cccccc" stroke-width="17.666666666666668" class="1990832234"/><title>CM2104 → CM3113: 1</title></g><g style="mix-blend-mode: multiply;"><path d="M317,354.5C470.5,354.5,470.5,103.90178126530425,624,103.90178126530425" stroke="#cccccc" stroke-width="17.666666666666668" class="1990832234"/><title>CM2110 → CM3113: 1</title></g><g style="mix-blend-mode: multiply;"><path d="M629,77.40178126530427C704.5,77.40178126530427,704.5,309.7884158812504,780,309.7884158812504" stroke="#cccccc" stroke-width="35.333333333333336" class="1990861996"/><title>CM3113 → CM4105: 2</title></g><g style="mix-blend-mode: multiply;"><path d="M473,442.49999999999994C626.5,442.49999999999994,626.5,371.6217492145837,780,371.6217492145837" stroke="#cccccc" stroke-width="17.666666666666668" class="1990861996"/><title>CM3111 → CM4105: 1</title></g><g style="mix-blend-mode: multiply;"><path d="M473,518.1666666666667C626.5,518.1666666666667,626.5,389.2884158812504,780,389.2884158812504" stroke="#cccccc" stroke-width="17.666666666666668" class="1990861996"/><title>CM3038 → CM4105: 1</title></g><g style="mix-blend-mode: multiply;"><path d="M473,477.8333333333333C548.5,477.8333333333333,548.5,506.25650635998295,624,506.25650635998295" stroke="#cccccc" stroke-width="17.666666666666668" class="1990861998"/><title>CM3111 → CM4107: 1</title></g><g style="mix-blend-mode: multiply;"><path d="M473,553.5C548.5,553.5,548.5,523.9231730266497,624,523.9231730266497" stroke="#cccccc" stroke-width="17.666666666666668" class="1990861998"/><title>CM3038 → CM4107: 1</title></g><g style="mix-blend-mode: multiply;"><path d="M473,460.16666666666663C548.5,460.16666666666663,548.5,396.582649289224,624,396.582649289224" stroke="#cccccc" stroke-width="17.666666666666668" class="1990862058"/><title>CM3111 → CM4125: 1</title></g><g style="mix-blend-mode: multiply;"><path d="M473,535.8333333333334C548.5,535.8333333333334,548.5,414.24931595589067,624,414.24931595589067" stroke="#cccccc" stroke-width="17.666666666666668" class="1990862058"/><title>CM3038 → CM4125: 1</title></g><g style="mix-blend-mode: multiply;"><path d="M473,495.5C548.5,495.5,548.5,546.5898396933163,624,546.5898396933163" stroke="#cccccc" stroke-width="17.666666666666668" class="1990862059"/><title>CM3111 → CM4126: 1</title></g><g style="mix-blend-mode: multiply;"><path d="M473,571.1666666666666C548.5,571.1666666666666,548.5,564.256506359983,624,564.256506359983" stroke="#cccccc" stroke-width="17.666666666666668" class="1990862059"/><title>CM3038 → CM4126: 1</title></g><g style="mix-blend-mode: multiply;"><path d="M629,236.48876900425861C704.5,236.48876900425861,704.5,336.28841588125033,780,336.28841588125033" stroke="#cccccc" stroke-width="17.666666666666668" class="1990861996"/><title>CM3104 → CM4105: 1</title></g><g style="mix-blend-mode: multiply;"><path d="M629,259.15543567092527C704.5,259.15543567092527,704.5,353.955082547917,780,353.955082547917" stroke="#cccccc" stroke-width="17.666666666666668" class="1990861996"/><title>CM3105 → CM4105: 1</title></g><g style="mix-blend-mode: multiply;"><path d="M473,161.87431279426286C626.5,161.87431279426286,626.5,265.6217492145837,780,265.6217492145837" stroke="#cccccc" stroke-width="53" class="1990861996"/><title>CM3110 → CM4105: 3</title></g><g style="mix-blend-mode: multiply;"><path d="M473,197.2076461275962C548.5,197.2076461275962,548.5,378.9159826225573,624,378.9159826225573" stroke="#cccccc" stroke-width="17.666666666666668" class="1990862058"/><title>CM3110 → CM4125: 1</title></g><g style="mix-blend-mode: multiply;"><path d="M473,126.54097946092953C548.5,126.54097946092953,548.5,126.56844793197097,624,126.56844793197097" stroke="#cccccc" stroke-width="17.666666666666668" class="1990862022"/><title>CM3110 → CM4110: 1</title></g><g style="mix-blend-mode: multiply;"><path d="M161,548.5000000000001C470.5,548.5000000000001,470.5,424.62174921458376,780,424.62174921458376" stroke="#cccccc" stroke-width="17.666666666666668" class="1990861996"/><title>CM3130 → CM4105: 1</title></g><g style="mix-blend-mode: multiply;"><path d="M161,525.8333333333335C470.5,525.8333333333335,470.5,406.9550825479171,780,406.9550825479171" stroke="#cccccc" stroke-width="17.666666666666668" class="1990861996"/><title>CM3132 → CM4105: 1</title></g><g style="mix-blend-mode: multiply;"><path d="M473,73.54097946092953C626.5,73.54097946092953,626.5,8.833333333333334,780,8.833333333333334" stroke="#cccccc" stroke-width="17.666666666666668" class="1990861997"/><title>CM3110 → CM4106: 1</title></g><g style="mix-blend-mode: multiply;"><path d="M629,33.23511459863759C704.5,33.23511459863759,704.5,26.5,780,26.5" stroke="#cccccc" stroke-width="17.666666666666668" class="1990861997"/><title>CM3113 → CM4106: 1</title></g><g style="mix-blend-mode: multiply;"><path d="M473,100.04097946092955C626.5,100.04097946092955,626.5,58.0000000000001,780,58.0000000000001" stroke="#cccccc" stroke-width="35.333333333333336" class="1990861097"/><title>CM3110 → CM4025: 2</title></g><g style="mix-blend-mode: multiply;"><path d="M629,50.90178126530426C704.5,50.90178126530426,704.5,84.5000000000001,780,84.5000000000001" stroke="#cccccc" stroke-width="17.666666666666668" class="1990861097"/><title>CM3113 → CM4025: 1</title></g></g><g><text x="9" y="37.390466847027966" text-anchor="start"><tspan alignment-baseline="middle" style="font-family: Arial, sans-serif; font-size: 10px; fill: black; font-weight: bold;">Problem Solving</tspan></text><text x="321" y="70.6666666666667" text-anchor="start"><tspan alignment-baseline="middle" style="font-family: Arial, sans-serif; font-size: 10px; fill: black; font-weight: bold;">CM2100</tspan></text><text x="165" y="61.83333333333336" text-anchor="start"><tspan alignment-baseline="middle" style="font-family: Arial, sans-serif; font-size: 10px; fill: black; font-weight: bold;">CM1109</tspan></text><text x="165" y="266.16666666666674" text-anchor="start"><tspan alignment-baseline="middle" style="font-family: Arial, sans-serif; font-size: 10px; fill: black; font-weight: bold;">CM1112</tspan></text><text x="165" y="172.83333333333337" text-anchor="start"><tspan alignment-baseline="middle" style="font-family: Arial, sans-serif; font-size: 10px; fill: black; font-weight: bold;">CM1113</tspan></text><text x="9" y="561.643187151645" text-anchor="start"><tspan alignment-baseline="middle" style="font-family: Arial, sans-serif; font-size: 10px; fill: black; font-weight: bold;">AI and Data Science</tspan></text><text x="165" y="571.1666666666667" text-anchor="start"><tspan alignment-baseline="middle" style="font-family: Arial, sans-serif; font-size: 10px; fill: black; font-weight: bold;">CM1102</tspan></text><text x="9" y="489.14280089470265" text-anchor="start"><tspan alignment-baseline="middle" style="font-family: Arial, sans-serif; font-size: 10px; fill: black; font-weight: bold;">Security</tspan></text><text x="165" y="480.5000000000001" text-anchor="start"><tspan alignment-baseline="middle" style="font-family: Arial, sans-serif; font-size: 10px; fill: black; font-weight: bold;">CM1110</tspan></text><text x="165" y="503.1666666666668" text-anchor="start"><tspan alignment-baseline="middle" style="font-family: Arial, sans-serif; font-size: 10px; fill: black; font-weight: bold;">CM1111</tspan></text><text x="9" y="439.976134228036" text-anchor="start"><tspan alignment-baseline="middle" style="font-family: Arial, sans-serif; font-size: 10px; fill: black; font-weight: bold;">Design</tspan></text><text x="165" y="435.16666666666674" text-anchor="start"><tspan alignment-baseline="middle" style="font-family: Arial, sans-serif; font-size: 10px; fill: black; font-weight: bold;">CM1108</tspan></text><text x="165" y="368.33333333333337" text-anchor="start"><tspan alignment-baseline="middle" style="font-family: Arial, sans-serif; font-size: 10px; fill: black; font-weight: bold;">CM1114</tspan></text><text x="165" y="457.8333333333334" text-anchor="start"><tspan alignment-baseline="middle" style="font-family: Arial, sans-serif; font-size: 10px; fill: black; font-weight: bold;">CM1105</tspan></text><text x="9" y="113.05713351369461" text-anchor="start"><tspan alignment-baseline="middle" style="font-family: Arial, sans-serif; font-size: 10px; fill: black; font-weight: bold;">Programing</tspan></text><text x="9" y="171.05713351369457" text-anchor="start"><tspan alignment-baseline="middle" style="font-family: Arial, sans-serif; font-size: 10px; fill: black; font-weight: bold;">Multi Platform Development</tspan></text><text x="464" y="264.0409794609298" text-anchor="end"><tspan alignment-baseline="middle" style="font-family: Arial, sans-serif; font-size: 10px; fill: black; font-weight: bold;">CM3109</tspan></text><text x="321" y="562.3333333333333" text-anchor="start"><tspan alignment-baseline="middle" style="font-family: Arial, sans-serif; font-size: 10px; fill: black; font-weight: bold;">CM2101</tspan></text><text x="321" y="225.83333333333337" text-anchor="start"><tspan alignment-baseline="middle" style="font-family: Arial, sans-serif; font-size: 10px; fill: black; font-weight: bold;">CM2104</tspan></text><text x="321" y="363.3333333333333" text-anchor="start"><tspan alignment-baseline="middle" style="font-family: Arial, sans-serif; font-size: 10px; fill: black; font-weight: bold;">CM2110</tspan></text><text x="620" y="68.56844793197095" text-anchor="end"><tspan alignment-baseline="middle" style="font-family: Arial, sans-serif; font-size: 10px; fill: black; font-weight: bold;">CM3113</tspan></text><text x="464" y="469" text-anchor="end"><tspan alignment-baseline="middle" style="font-family: Arial, sans-serif; font-size: 10px; fill: black; font-weight: bold;">CM3111</tspan></text><text x="464" y="544.6666666666667" text-anchor="end"><tspan alignment-baseline="middle" style="font-family: Arial, sans-serif; font-size: 10px; fill: black; font-weight: bold;">CM3038</tspan></text><text x="620" y="236.48876900425864" text-anchor="end"><tspan alignment-baseline="middle" style="font-family: Arial, sans-serif; font-size: 10px; fill: black; font-weight: bold;">CM3104</tspan></text><text x="620" y="259.15543567092527" text-anchor="end"><tspan alignment-baseline="middle" style="font-family: Arial, sans-serif; font-size: 10px; fill: black; font-weight: bold;">CM3105</tspan></text><text x="464" y="135.37431279426298" text-anchor="end"><tspan alignment-baseline="middle" style="font-family: Arial, sans-serif; font-size: 10px; fill: black; font-weight: bold;">CM3110</tspan></text><text x="9" y="529.4761342280359" text-anchor="start"><tspan alignment-baseline="middle" style="font-family: Arial, sans-serif; font-size: 10px; fill: black; font-weight: bold;">CM2112</tspan></text><text x="165" y="548.5" text-anchor="start"><tspan alignment-baseline="middle" style="font-family: Arial, sans-serif; font-size: 10px; fill: black; font-weight: bold;">CM3130</tspan></text><text x="165" y="525.8333333333335" text-anchor="start"><tspan alignment-baseline="middle" style="font-family: Arial, sans-serif; font-size: 10px; fill: black; font-weight: bold;">CM3132</tspan></text><text x="776" y="336.2884158812504" text-anchor="end"><tspan alignment-baseline="middle" style="font-family: Arial, sans-serif; font-size: 10px; fill: black; font-weight: bold;">CM4105</tspan></text><text x="620" y="515.0898396933163" text-anchor="end"><tspan alignment-baseline="middle" style="font-family: Arial, sans-serif; font-size: 10px; fill: black; font-weight: bold;">CM4107</tspan></text><text x="620" y="396.582649289224" text-anchor="end"><tspan alignment-baseline="middle" style="font-family: Arial, sans-serif; font-size: 10px; fill: black; font-weight: bold;">CM4125</tspan></text><text x="620" y="555.4231730266496" text-anchor="end"><tspan alignment-baseline="middle" style="font-family: Arial, sans-serif; font-size: 10px; fill: black; font-weight: bold;">CM4126</tspan></text><text x="620" y="126.568447931971" text-anchor="end"><tspan alignment-baseline="middle" style="font-family: Arial, sans-serif; font-size: 10px; fill: black; font-weight: bold;">CM4110</tspan></text><text x="776" y="17.666666666666714" text-anchor="end"><tspan alignment-baseline="middle" style="font-family: Arial, sans-serif; font-size: 10px; fill: black; font-weight: bold;">CM4106</tspan></text><text x="776" y="66.83333333333343" text-anchor="end"><tspan alignment-baseline="middle" style="font-family: Arial, sans-serif; font-size: 10px; fill: black; font-weight: bold;">CM4025</tspan></text></g></g></svg>